<svg width="24" height="24" viewBox="0 0 24 24" fill="none" xmlns="http://www.w3.org/2000/svg">
    <path fill-rule="evenodd" clip-rule="evenodd" d="M1.70711 0.292893C1.31658 -0.0976311 0.683417 -0.0976311 0.292893 0.292893C-0.0976311 0.683417 -0.0976311 1.31658 0.292893 1.70711L10.5858 12L0.29297 22.2929C-0.0975542 22.6834 -0.0975542 23.3166 0.29297 23.7071C0.683495 24.0976 1.31666 24.0976 1.70718 23.7071L12 13.4143L22.2929 23.7071C22.6834 24.0976 23.3166 24.0976 23.7071 23.7071C24.0976 23.3166 24.0976 22.6834 23.7071 22.2929L13.4143 12L23.7072 1.70712C24.0977 1.3166 24.0977 0.683432 23.7072 0.292908C23.3167 -0.0976165 22.6835 -0.0976166 22.293 0.292908L12 10.5858L1.70711 0.292893Z" fill="#a33"/>
</svg>
