<svg width="32" height="16" viewBox="0 0 32 16" fill="none" xmlns="http://www.w3.org/2000/svg">
<path fill-rule="evenodd" clip-rule="evenodd" d="M0 1C0 0.447715 0.447715 0 1 0H31C31.5523 0 32 0.447715 32 1C32 1.55228 31.5523 2 31 2H1C0.447715 2 0 1.55228 0 1ZM0 8C0 7.44772 0.447715 7 1 7H31C31.5523 7 32 7.44772 32 8C32 8.55229 31.5523 9 31 9H1C0.447715 9 0 8.55229 0 8ZM1 14C0.447715 14 0 14.4477 0 15C0 15.5523 0.447715 16 1 16H15C15.5523 16 16 15.5523 16 15C16 14.4477 15.5523 14 15 14H1Z" fill="#a33"/>
</svg>
