<svg xmlns="http://www.w3.org/2000/svg" width="190" height="40" viewBox="0 0 50.271 10.583">
  <g fill="#a33">
    <path d="M12.246 10.115c.035.01.056 0 .058-.024.003-.063.252-.25.588-.443.174-.1.365-.23.425-.29.101-.1.117-.106.239-.093.37.04.611.09.666.135.02.016.047.021.062.012.029-.018.34.047.399.084.02.012.087.025.149.027.148.007.342.088.303.127-.029.029-.247-.01-.351-.063-.035-.018-.05-.014-.05.013 0 .037.116.072.742.226.103.025.178.03.194.015.017-.016.01-.026-.016-.026-.052 0-.15-.1-.117-.12.04-.023.143.031.16.086.026.08.136.12.244.09.104-.03.323-.231.365-.335.041-.102.03-.697-.015-.828-.027-.08-.055-.112-.105-.119a.251.251 0 01-.104-.04c-.034-.028-.135-.05-.424-.093a.753.753 0 01-.154-.04 2.028 2.028 0 00-.252-.065 16.29 16.29 0 01-.755-.171 19.525 19.525 0 00-.761-.185 1.908 1.908 0 01-.282-.079.177.177 0 00-.111-.012.361.361 0 01-.16-.018l-.102-.034-.204.192a8.987 8.987 0 01-.41.359c-.487.396-.848.681-1.044.825-.115.085-.21.17-.21.19-.002.04.076.202.096.202.031 0 .38-.14.504-.203.077-.039.233-.09.349-.113.132-.026.342-.106.568-.214.37-.177.422-.186.53-.092.064.056.062.178-.005.262-.057.073-.587.415-.642.415-.018 0-.155.062-.305.138-.15.075-.329.158-.398.184.06.105.257.1.336.118zm3.013-.417c-.08-.03-.103-.076-.042-.082.122-.011.29.065.257.118-.017.028-.073.019-.215-.036zm.716-.038c-.01-.024-.004-.057.012-.074a.07.07 0 00.015-.067c-.008-.022.008-.046.037-.055a.705.705 0 00.1-.042c.111-.06.106.011-.012.165-.097.126-.126.14-.152.073zm-.185-.005c-.075-.083-.09-.198-.033-.26.097-.107.165-.043.094.09-.022.04-.022.065 0 .087.036.036.04.131.007.131-.013 0-.044-.022-.068-.049zm-.328-.147c0-.016.013-.028.03-.028.016 0 .021.012.012.028-.01.015-.023.028-.03.028-.007 0-.012-.013-.012-.028zm-.308-.09c0-.011.02-.013.045-.003.024.009.071.02.105.023.11.012.116.015.08.038-.039.024-.23-.024-.23-.058zm.774-.287c-.02-.203-.017-.253.018-.287.023-.023.054-.035.068-.026.041.026.067.497.03.542-.062.075-.093.013-.116-.229zm-1.181.22c-.225-.072-.292-.1-.292-.125 0-.02.105.004.224.052.023.01.054.019.07.02.188.027.297.053.31.073.024.04-.163.028-.312-.02zm.988-.192c.008-.043.026-.062.051-.052.043.017.048.038.023.103-.026.067-.089.024-.074-.051zm-.693.07c0-.015.02-.02.042-.011.023.009.042.02.042.027 0 .006-.019.011-.042.011-.023 0-.042-.012-.042-.027zm-.67-.001c0-.015.005-.028.011-.028.007 0 .02.013.03.028.01.015.004.028-.012.028s-.03-.013-.03-.028zm-.169-.028c0-.015.025-.028.055-.028s.062.013.071.028c.01.016-.013.028-.054.028-.04 0-.072-.013-.072-.028zm1.233-.187c.07-.204.18-.391.253-.43.075-.04.101-.012.047.05a1.618 1.618 0 00-.218.413.35.35 0 01-.066.131c-.063.041-.068-.013-.016-.164zm-1.667.101c-.242-.057-.349-.102-.349-.147 0-.013.036-.015.08-.006.06.013.086.006.098-.025.023-.061.056-.054.088.018.02.042.058.065.124.072.054.006.133.03.178.052.074.038.084.038.12-.009a.21.21 0 00.039-.072c0-.011.014-.02.03-.02s.023.01.016.022c-.008.012-.003.04.01.061.036.057-.02.112-.113.112-.043 0-.187-.026-.321-.058zm1.305-.142c.101-.244.213-.431.282-.47.105-.058.13-.015.044.076-.08.085-.227.367-.257.494-.018.073-.024.077-.064.037-.038-.038-.039-.056-.005-.137zm-.319.098a.16.16 0 01.084-.001c.027.007.012.013-.034.014-.046 0-.069-.005-.05-.013zm-.11-.187c.015-.033.048-.117.073-.187.055-.155.188-.307.27-.307.057 0 .055.006-.027.099a1.427 1.427 0 00-.257.485c-.036.123-.037.123-.062.047a.189.189 0 01.003-.137zm1.069.085c0-.126.222-.355.345-.355.066 0 .044.066-.026.08-.081.015-.121.057-.196.205-.074.145-.123.173-.123.07zm-.895.052c0-.006.02-.032.045-.057.035-.035.053-.038.085-.011.032.027.033.038.004.056-.038.024-.134.033-.134.012zm-2.461-.044c0-.017.03-.021.076-.01.11.026.114.038.012.038-.049 0-.088-.013-.088-.028zm2.004-.046c-.026-.026.036-.094.086-.094.024 0 .035.017.026.04-.01.024.004.046.032.053.026.007.008.014-.04.016-.047.002-.094-.005-.104-.015zm-.171-.269c.044-.136.153-.315.22-.362a.177.177 0 01.084-.021c.05 0 .048.006-.018.076-.087.093-.218.347-.218.424 0 .03-.022.077-.049.104-.046.047-.049.046-.058-.013a.654.654 0 01.039-.208zm-.195.2c.014-.023-.003-.028-.052-.019-.092.018-.158-.018-.115-.062.037-.037.178-.007.179.039 0 .017.013.013.028-.01.015-.024.027-.03.027-.013 0 .016-.015.044-.033.063-.042.042-.06.043-.034.001zm-.38-.068c0-.215.236-.656.352-.656.054 0 .053.003-.055.164a1.51 1.51 0 00-.143.275c-.094.265-.105.288-.13.288-.013 0-.024-.032-.024-.07zm-.99.002a.68.68 0 01-.193-.068c-.042-.042.046-.068.172-.051.1.013.368.12.368.147 0 .026-.184.011-.347-.028zm1.418-.132c.01-.022.016-.015.017.017.002.03-.005.046-.014.037-.01-.01-.01-.033-.003-.054zm-.845-.025c.033-.02.033-.025-.002-.025-.023 0-.006-.02.037-.042.078-.041.146-.033.117.013-.008.012.004.03.026.038.035.014.09-.073.079-.122-.002-.009.02-.017.048-.02.073-.005.09.06.027.106-.033.023-.043.049-.028.067.017.02-.032.027-.16.02-.121-.006-.17-.018-.144-.035zm-.143-.063c.016-.016.029-.058.029-.093 0-.035.02-.115.045-.178.025-.062.038-.12.03-.13-.01-.008-.055-.002-.102.014-.047.017-.085.02-.085.007 0-.046.079-.087.199-.103a.404.404 0 00.15-.041.11.11 0 01.064-.026c.026 0 .011.036-.042.105a1.27 1.27 0 00-.188.372c-.033.142-.05.168-.09.135-.027-.023-.03-.042-.01-.062zm-.398-.013c-.014-.054.066-.173.117-.173.037 0 .027.173-.012.202-.048.036-.09.024-.105-.03zm1.334-.06a.253.253 0 01.08-.062c.057-.03.056-.027-.008.04-.067.07-.11.084-.072.023zm-.488-.096c0-.006.022-.028.05-.049.044-.034.044-.033.01.011-.037.047-.06.061-.06.038zm-10.952.495c0-.17.002-.173.073-.158.048.01.095-.005.141-.043l.069-.058h-.131c-.072-.001-.14.011-.149.026-.027.045-.152.033-.233-.022-.147-.098-.224-.124-.33-.11-.134.016-.517-.053-.547-.099a.237.237 0 01-.022-.102v-.068l.063.058c.154.14.45.188.566.092.035-.03.052-.027.095.011.029.026.105.05.17.053.096.005.126-.007.162-.06l.044-.065-.158.015c-.197.018-.234-.025-.06-.07.148-.037.12-.077-.045-.06-.065.006-.11-.001-.11-.019 0-.016.035-.029.079-.029a.211.211 0 00.142-.067l.063-.067-.063-.058c-.088-.082-.057-.096.074-.033.186.09.222.086.222-.026 0-.089-.008-.098-.105-.121-.058-.014-.119-.05-.134-.078-.032-.06-.129-.07-.228-.024-.147.067-.247.383-.141.443.039.022.042.038.018.078-.092.15-.196.009-.164-.221.02-.147.02-.146-.087-.105-.088.034-.18.012-.18-.043 0-.053.052-.08.092-.047.075.061.202.022.308-.096.12-.133.139-.202.037-.136-.073.048-.221.044-.31-.008-.056-.032-.055-.032.005-.033.033 0 .07-.015.08-.032.012-.02.063-.023.148-.01l.178.026a.134.134 0 01.068.024c.035.034.115.02.132-.025.01-.024.03-.036.046-.026.015.01.02.033.008.05-.011.019.01.014.048-.011a.22.22 0 00.084-.112c.012-.052.034-.067.098-.067.12 0 .125.082.008.125-.084.03-.087.036-.036.056a.287.287 0 01.098.072c.038.046.036.049-.029.03-.12-.036-.151-.033-.161.016-.007.03.02.063.072.09.076.04.086.038.13-.01a.226.226 0 01.123-.063c.04-.005.07-.023.067-.042-.003-.018.02-.04.05-.05.034-.011.064-.052.073-.101.01-.045.028-.089.041-.097.014-.008.024-.055.024-.105 0-.049-.01-.075-.02-.06-.03.042-.264.153-.289.138a.265.265 0 01-.05-.095c-.021-.064-.019-.09.012-.115.031-.026.04-.025.04.003 0 .027.008.029.03.007.017-.016.026-.06.021-.096-.008-.055-.026-.066-.104-.066-.053 0-.1-.015-.107-.034-.016-.047.383-.013.442.037.07.06.117.05.081-.017-.016-.031-.051-.056-.077-.057a.369.369 0 01-.128-.041.367.367 0 00-.118-.042c-.055 0-.077-.053-.04-.098.028-.034.042-.034.093-.002.034.02.095.045.138.055.042.01.077.031.077.047s.011.022.026.013a.52.52 0 01.18.007c.107.017.17.014.215-.01l.064-.033-.06-.02a.39.39 0 00-.154 0c-.167.031-.364-.056-.509-.226a1.258 1.258 0 01-.17-.249c-.05-.12-.123-.13-.173-.024-.047.103-.045.115.028.125.056.008.062.024.057.132-.006.143-.042.196-.1.148-.053-.045-.08-.01-.044.057.022.041.05.052.11.044.045-.007.082-.002.082.012 0 .043-.077.054-.18.026-.09-.025-.103-.021-.132.033-.033.06-.033.06-.058-.014-.02-.06-.005-.117.075-.287.055-.117.1-.243.1-.28a.15.15 0 01.058-.11c.047-.033.055-.058.04-.129-.014-.059-.033-.083-.059-.073-.026.01-.048-.022-.07-.103a10.404 10.404 0 00-.068-.244c-.123-.416-.186-.969-.129-1.125.048-.13.073-.041.064.229-.01.303.027.484.095.458.023-.009.046.006.056.037.009.028.042.103.074.167.034.066.052.14.043.175-.025.094.028.247.091.263.03.008.067.045.08.081.036.093.11.151.147.115.02-.02.014-.079-.017-.186a.554.554 0 01-.03-.209.375.375 0 00-.026-.171c-.057-.162-.053-.29.011-.37.064-.077.105-.054.059.033-.025.046-.025.093 0 .198a.412.412 0 00.06.154c.013.008.023.005.02-.008a.236.236 0 01.025-.093 8.57 8.57 0 00.095-.237.868.868 0 01.115-.217c.028-.028.044-.061.036-.074-.008-.012.017-.052.055-.088.038-.035.07-.075.07-.089 0-.044-.115.037-.145.103-.03.064-.157.143-.186.114-.013-.013.054-.079.4-.386.062-.055.102-.11.09-.121-.033-.034-.263.09-.315.169-.062.094-.187.155-.248.121-.064-.035-.131-.007-.11.047.008.024.003.043-.013.043-.058 0-.146.239-.138.377.005.088-.005.139-.028.147-.026.01-.035-.04-.035-.185 0-.168.014-.224.087-.365.096-.182.147-.22.21-.155.062.06.073.055.232-.098.08-.077.163-.14.185-.14.023 0 .041-.013.041-.028 0-.017-.124-.028-.318-.028-.249 0-.326.009-.353.042-.053.063-.075.05-.078-.043-.001-.046.009-.077.022-.07.013.01.032.003.042-.013.01-.016.14-.028.302-.029.287 0 .412-.027.309-.067-.05-.02-.049-.022.004-.062.051-.039.036-.04-.167-.023-.348.031-.587.103-.683.206a.445.445 0 01-.096.087c-.009 0 .004-.055.03-.122.04-.11.062-.13.257-.22.116-.056.265-.115.329-.132.35-.093.7-.233.85-.34.097-.068.091-.103-.007-.05-.036.019-.147.051-.246.072-.1.021-.21.057-.244.08a.276.276 0 01-.127.04c-.056 0-.063-.012-.059-.104l.007-.115c.002-.006.036.011.076.037.05.033.08.039.092.018.017-.027.094-.074.371-.226a.525.525 0 00.154-.13c.028-.04.081-.104.118-.14.049-.049.06-.077.038-.098-.021-.021-.055-.004-.117.061a.725.725 0 01-.444.236.27.27 0 00-.11.024c-.01.01-.045.018-.08.018s-.069.016-.075.035c-.007.02-.024.025-.037.012-.03-.029.097-.13.164-.13.028 0 .057-.02.066-.043.009-.023.087-.08.174-.126a.904.904 0 00.236-.182c.095-.118.075-.124-.06-.017a.7.7 0 01-.164.1.727.727 0 00-.175.113.93.93 0 01-.253.14.396.396 0 00-.186.115c-.068.104-.289.075-.289-.04 0-.062.219-.396.26-.398.04-.001.16-.247.16-.328 0-.065.042-.101.12-.103.028 0 .072-.038.098-.083.026-.045.064-.102.084-.127.078-.097.175-.28.148-.28a.478.478 0 00-.127.058c-.076.045-.1.077-.1.137 0 .085-.084.181-.104.12-.007-.02-.025-.036-.041-.036-.037 0-.274.246-.274.284 0 .015-.04.085-.088.156a.441.441 0 00-.086.207c.001.044-.01.087-.024.096-.014.008-.026.04-.026.069 0 .03-.025.067-.056.083a.116.116 0 00-.056.098c0 .037-.016.077-.035.09-.035.022-.08.093-.157.246a.594.594 0 01-.079.12c-.05.051-.046.118.01.16.042.03.043.045.01.122-.02.05-.059.101-.087.116-.046.025-.048.02-.02-.059.02-.061.02-.095 0-.116-.022-.021-.036-.006-.048.051a1.44 1.44 0 01-.084.22 1.662 1.662 0 00-.1.337c-.049.27-.041.952.014 1.247.046.243.06.325.088.5l.015.098-.062-.112c-.085-.153-.162-.461-.18-.713a5.37 5.37 0 00-.028-.297l-.013-.087-.1.045c-.088.04-.098.055-.087.13.007.046.004.154-.006.24l-.018.158.08-.012.08-.013-.045.088c-.025.048-.063.093-.084.101-.02.008-.045.046-.055.083-.009.037-.03.068-.045.068-.052 0-.062-.086-.016-.136.056-.062.057-.1.005-.143-.022-.018-.033-.051-.025-.073.009-.022.003-.04-.012-.04-.016 0-.037.057-.047.125-.02.129-.068.198-.076.108a.394.394 0 01.076-.285.4.4 0 00.068-.18c0-.075-.01-.069-.206.126-.262.258-.32.423-.228.645a.679.679 0 00.325.344c.17.085.25.089.25.01 0-.047.011-.054.062-.038.087.026.083.026.157 0 .053-.017.08-.007.135.051l.067.073-.076.03-.077.029.087.052c.047.029.09.068.097.087.022.065.079-.005.079-.096 0-.053.029-.13.07-.186a.373.373 0 00.07-.131c0-.02.011-.037.026-.037.044 0 .012.203-.037.239-.025.018-.045.064-.045.101 0 .038-.014.082-.031.1-.019.018-.022.056-.009.096.013.036.02.076.017.088-.004.012.037.04.09.062.133.056.144.088.048.138-.045.023-.088.058-.095.078-.01.028-.021.028-.05 0-.03-.028-.026-.046.025-.1.067-.071.056-.103-.038-.103-.071 0-.167.095-.14.14.01.016.008.026-.005.022-.023-.007-.157.094-.374.282-.093.08-.104.102-.079.15.04.072-.017.144-.06.077-.024-.035-.036-.031-.083.025-.092.11-.061.274.042.22.007-.003.033.022.057.056.025.035.069.063.099.063.093 0 .067.11-.036.153-.087.036-.094.034-.167-.048-.087-.096-.089-.095-.133.161a1.565 1.565 0 01-.287.61c.18.016 1.407.155 1.498-.028zm-1.074-.037c.03 0 .051-.195.023-.213-.032-.02-.028-.122.005-.122.027 0 .034.018.04.112.004.06.14.068.245.015.048-.024.096-.036.105-.027.03.031-.116.123-.197.123-.053 0-.08.015-.08.042 0 .048.07.058.098.014.022-.036.07-.008.07.041 0 .02-.035.046-.078.056zm.7-.049c.002-.058.076-.163.1-.14.016.017-.063.19-.087.19-.007 0-.013-.023-.012-.05zm.112-.02c0-.024.018-.043.042-.043.072 0 .049.056-.035.082-.004.001-.007-.016-.007-.04zm-.598-.449c.01-.022.032-.041.052-.041.02 0 .044-.022.055-.048.015-.041.022-.042.044-.007.04.062.033.083-.026.083-.029 0-.06.02-.07.044-.009.024-.028.036-.043.027-.015-.01-.02-.035-.012-.058zm1.129-.765c0-.035.079-.062.097-.032.008.013 0 .03-.02.038-.055.023-.077.02-.077-.006zm-.112-.942c0-.024.013-.035.028-.026.016.01.022.03.013.044-.024.039-.04.031-.04-.018zm-.516-.234c-.009-.014-.003-.034.012-.043.016-.01.029.002.029.026 0 .049-.017.056-.041.017zm-.697-.079a.653.653 0 00-.113-.144.204.204 0 01-.055-.238c.027-.072.067-.05.067.037 0 .045.01.086.02.091.012.005.041.04.065.077.048.073.246.14.425.141.058 0 .105.013.105.028 0 .045-.2.068-.291.034-.07-.027-.089-.025-.108.01-.035.061-.07.05-.115-.036zm1.162-.659c-.01-.08.034-.102.062-.03.028.072.02.128-.018.116-.02-.006-.039-.045-.044-.086zm-.48-.09c0-.024.012-.036.028-.027.015.01.028.03.028.044 0 .014-.013.026-.028.026-.016 0-.028-.02-.028-.043zm.27-.603c.01-.264.02-.357.038-.346.011.007.022.115.025.24.003.172-.005.223-.032.214-.02-.007-.034-.053-.032-.108zm.429-.108c.017-.064.044-.112.06-.107.036.012.033.028-.024.148-.06.126-.076.107-.036-.04zm-.67-.684c-.027-.034-.023-.04.025-.036.059.004.072.024.039.057-.025.025-.025.025-.064-.021zm.492-.394c.017-.044.066-.058.066-.018 0 .03-.03.06-.06.06-.012 0-.015-.018-.006-.042zm-.366-.045c.024-.038.096-.029.096.013a.09.09 0 01-.018.056c-.025.025-.097-.038-.078-.069zm.614-.024c.01-.016.036-.028.059-.028s.034.012.025.028c-.01.015-.036.027-.06.027-.023 0-.034-.012-.024-.027zm-.476-.084c.053-.059.126-.076.126-.03 0 .015-.027.053-.061.085-.081.075-.139.027-.065-.055zm.162-.116a.073.073 0 01-.016-.07c.013-.034.024-.033.067.006.028.026.045.058.037.071-.02.033-.05.03-.088-.007zm.288-.972c-.009-.014.01-.031.04-.04.036-.009.056 0 .056.026 0 .043-.072.054-.096.014zM8.734 9.75c.037-.11.076-.257.087-.326.022-.146.12-.392.156-.392.014 0 .025.041.027.091 0 .05.012.116.024.147.047.114.086-.09.079-.41-.007-.28-.003-.31.05-.354.093-.076.222-.257.317-.446.093-.186.278-.487.313-.51.026-.018-.001-.168-.031-.168-.013 0-.027.013-.032.03-.015.044-.107-.001-.107-.052 0-.037-.006-.038-.035-.008-.028.03-.028.04 0 .05.055.02.04.064-.021.064-.03 0-.056.013-.056.028 0 .04.105.035.118-.005.007-.02.032-.025.063-.013.05.019.05.02-.002.06a.211.211 0 01-.1.041c-.092.002-.083.057.01.06.077.004.08.007.023.017a.28.28 0 00-.105.042.09.09 0 01-.08.01c-.043-.016-.042-.022.006-.058.046-.035.047-.04.006-.041-.105-.002-.122.025-.116.186a.434.434 0 01-.055.265c-.034.059-.071.107-.083.107-.034 0-.023-.098.023-.21a.533.533 0 00.04-.192c-.01-.163-.002-.185.063-.187a.365.365 0 00.12-.028c.04-.019.022-.021-.06-.01-.07.01-.124.004-.135-.014-.01-.017.003-.03.032-.03.048-.002.048-.003 0-.03-.088-.052-.108-.016-.122.225-.014.254-.046.362-.08.273a.361.361 0 01.002-.154c.028-.141.032-.37.005-.37-.036 0-.073.115-.102.322-.025.176-.021.216.04.404.039.115.07.226.07.246 0 .021-.045.146-.1.277a1.988 1.988 0 01-.32.533.122.122 0 00-.028.062c0 .04-.256.393-.285.393-.045 0-.021-.155.063-.418a5.66 5.66 0 00.222-.82c.064-.317.06-.394-.02-.378-.04.007-.05.04-.052.176a2.63 2.63 0 01-.023.302c-.026.168-.09.17-.15.006a.423.423 0 01.084-.413c.044-.044.058-.088.053-.163-.007-.097 0-.106.093-.137.056-.019.12-.027.141-.018.04.015.069-.032.166-.273a.648.648 0 00.044-.198c0-.06.03-.128.084-.197a.53.53 0 00.083-.127c0-.012.033-.061.074-.11.082-.097.074-.127-.027-.102-.05.013-.084.058-.132.178-.08.2-.075.196-.124.131-.038-.05-.04-.05-.041.032 0 .047-.016.1-.034.117-.024.025-.023.043.004.076.02.024.024.043.01.043-.015 0-.057.066-.094.147-.045.098-.07.13-.077.096a.183.183 0 01.029-.112c.058-.09.079-.159.048-.159-.014 0-.06.054-.102.119l-.085.13c-.004.007-.015.004-.025-.005-.023-.023.044-.216.075-.216.042 0 .03-.074-.018-.113-.038-.032-.041-.027-.025.038.012.048.008.075-.012.075a.03.03 0 00-.03.03c0 .052-.079.11-.125.093-.024-.01-.044-.003-.044.016 0 .017-.01.025-.024.017-.042-.026-.06-.184-.027-.237a.127.127 0 00.014-.099c-.015-.039-.04-.044-.142-.029-.105.016-.132.01-.174-.039-.032-.038-.07-.053-.109-.043-.071.018-.139-.052-.114-.117.016-.04.059-.044.332-.032.173.008.331.02.352.025.02.005.055-.017.077-.05.04-.058.039-.058-.289-.076-.458-.025-.792.013-.986.113-.133.068-.155.09-.163.168-.014.152.032.201.184.198.14-.003.27.05.41.166.092.077.21.072.301-.01.047-.044.058-.043.15.007.105.056.112.073.137.323.008.087.023.179.032.203.013.032 0 .044-.045.044-.048 0-.059-.012-.048-.055.021-.08-.033-.11-.227-.13-.163-.018-.172-.015-.172.042 0 .092-.073.102-.226.03-.11-.052-.146-.058-.173-.03-.027.028-.022.045.027.082.207.157.195.14.142.182-.031.025-.038.047-.02.066.062.061.277.524.251.54-.015.009-.024.052-.021.095.004.048-.01.088-.036.1a9.578 9.578 0 00-.1.05c-.07.035-.194.016-.238-.038a.123.123 0 00-.083-.039c-.028 0-.149-.1-.27-.224-.159-.163-.237-.223-.289-.223-.046 0-.12-.048-.219-.142a1.037 1.037 0 00-.214-.166.295.295 0 01-.116-.104 1.171 1.171 0 00-.124-.153.414.414 0 01-.094-.154.352.352 0 00-.063-.127c-.025-.027-.033-.05-.02-.05.014 0-.001-.017-.033-.04-.078-.054-.179-.363-.165-.505l.01-.111-.063.078c-.055.07-.067.073-.099.035a.091.091 0 01-.014-.092.167.167 0 00.017-.07c-.002-.012.008-.021.024-.021.015 0 .028-.031.028-.07 0-.037.027-.094.06-.125.034-.031.05-.058.036-.059-.015 0-.001-.013.03-.026.047-.02.048-.024.006-.026-.027-.001-.05-.018-.051-.037-.015-.21-.01-.436.009-.476.018-.038.003-.07-.061-.135a.384.384 0 01-.085-.107c0-.04-.104-.14-.124-.12-.012.01-.017.001-.012-.022.007-.028-.016-.045-.069-.05-.083-.01-.169.04-.143.081.008.014-.001.025-.021.025-.03 0-.029.006.001.025.03.019.03.027.003.036-.019.006-.036.054-.038.106-.002.052-.018.1-.035.105-.031.01-.03-.081.004-.165.012-.031.002-.05-.033-.06-.049-.012-.049-.013 0-.016.067-.004.031-.059-.038-.059-.03 0-.055.019-.055.041 0 .048-.1.11-.14.085-.015-.01-.016-.036-.003-.064l.08-.16c.056-.11.057-.198.002-.164-.018.01-.015.026.01.041.03.02.028.025-.009.025-.06 0-.08-.057-.08-.226 0-.075-.012-.139-.027-.14a3.005 3.005 0 01-.054-.008.093.093 0 01-.046-.023c-.018-.019.04-.05.165-.09.048-.015.047-.02-.014-.073l-.065-.056.157.009c.206.01.25-.042.157-.187-.068-.106-.103-.118-.196-.069a.53.53 0 01-.17.04c-.159.012-.185.052-.094.146.098.102.095.118-.018.118a.197.197 0 01-.144-.056c-.028-.03-.06-.056-.072-.056-.035 0 .007.116.048.131.02.008.038.026.038.039a.524.524 0 01-.155.166c-.007 0-.013-.048-.013-.105-.001-.165-.027-.186-.161-.132-.136.054-.182.15-.147.306.026.112.056.162.056.09 0-.07.045-.08.135-.028.072.041.079.056.054.11-.024.054-.014.078.066.16.052.054.117.124.144.156.054.064.133.078.133.023 0-.02-.045-.09-.098-.158a.763.763 0 01-.097-.14c.002-.066.077-.294.1-.302.072-.024.125.071.165.3.043.238.04.256-.046.425-.035.07-.03.122.016.16a.237.237 0 01.057.113c.01.043.043.101.073.129.1.09.223.44.233.659.005.118-.135.631-.187.683-.01.01-.04.01-.065 0-.044-.016-.044-.021.002-.07.026-.03.041-.065.034-.078a.473.473 0 01.035-.176c.042-.126.047-.202.031-.427-.022-.319-.048-.363-.15-.26-.04.04-.098.072-.128.072-.069 0-.104.05-.063.09.021.022.016.042-.018.068-.042.032-.034.036.062.025.115-.013.224.026.197.07-.022.035-.174.028-.44-.021a1.577 1.577 0 00-.307-.031l-.091.009-.002.293c-.001.304-.006.336-.063.439a.348.348 0 00-.034.14.264.264 0 01-.028.12c-.024.037-.034.035-.071-.013a.314.314 0 01-.052-.112l-.042-.232a.71.71 0 01-.02-.196c.026-.041.027-.328.002-.341-.014-.008-.045.08-.069.195a1.026 1.026 0 00-.01.44c.02.125.057.267.084.314.049.082.049.086-.004.126-.072.054-.096.044-.152-.06l-.046-.085-.077.066c-.042.037-.094.066-.114.066-.049 0-.078.078-.049.13.02.034.034.032.095-.017.095-.074.111-.072.09.015-.017.066-.013.07.062.053.157-.035.178-.045.207-.099.033-.062.125-.075.101-.014-.076.2-.28.393-.51.48-.068.026-.124.058-.124.071 0 .014-.043.025-.095.025-.097 0-.184.058-.184.123 0 .073.04.068.137-.017.085-.075.102-.081.11-.04-1.179.847.777.42.87.304.086-.108.197-.16.197-.09 0 .048.081.03.11-.026a.853.853 0 00.048-.212l.018-.159.065.08c.076.092.081.144.028.272-.03.07-.063.1-.127.114-1.078.53.075.603.293-.133.03-.124-.038-.376-.12-.44a.825.825 0 01-.14-.155c-.097-.145-.122-.123-.102.093.017.178.013.196-.054.273-.04.045-.073.068-.074.05 0-.02.01-.04.022-.048.013-.008.025-.085.027-.17.004-.134-.003-.156-.044-.149-.031.005-.05-.013-.057-.055-.009-.066.037-.088.06-.028.008.02.016-.005.017-.055a1.307 1.307 0 00-.082-.32c-.098-.268-.097-.265-.039-.217.039.032.051.03.086-.017a.245.245 0 00.029-.272c-.06-.125-.103-.381-.07-.402.015-.01.09.018.167.06.159.086.31.082.456-.014.06-.04.091-.046.119-.023.027.023.028.04.004.068-.017.021-.044.039-.059.039a.258.258 0 00-.094.053c-.051.04-.096.05-.18.038-.132-.018-.135-.007-.057.248.103.342.148.561.13.647-.014.07-.002.102.058.165.102.099.112.095.285.2.399.602 2.35 1.162 2.462.83-.021-.081.111-.064.201.026.048.047.12.094.161.104.041.01.165.06.275.111l.2.093c.069.18.521.237.493.104zm-.096-.38a.03.03 0 01.031-.03zm-.56-.002c.037-.024.037-.027-.003-.028A.115.115 0 018 9.303c-.024-.03.005-.058.136-.131.092-.052.167-.105.167-.117 0-.013.013-.023.028-.023.057 0 .026.109-.057.197-.066.071-.077.098-.049.118.025.018.017.021-.026.012-.035-.008-.07-.003-.079.011a.062.062 0 01-.049.025c-.02 0-.016-.011.009-.027zM3.364 8.91c.145-.108.243-.209.335-.347.071-.108.13-.213.13-.235 0-.022.018-.065.04-.095.04-.052.042-.051.043.02.002.225-.239.571-.545.781-.384.25-.204.025-.003-.124zm.353.15c0-.015.013-.028.03-.028.016 0 .021.013.012.028-.01.016-.023.028-.03.028-.007 0-.012-.012-.012-.028zm1.119-.853c-.02-.04.176-.1.2-.062.035.055-.008.096-.097.093-.05-.002-.096-.015-.103-.03zM4.75 8c0-.09.044-.136.09-.09.04.04.002.172-.049.172-.027 0-.041-.028-.041-.082zm4.642-.141c0-.016.012-.028.026-.028.015 0 .035.012.044.028.01.015-.002.028-.026.028s-.044-.013-.044-.028zm.014-.084c-.01-.016.002-.028.025-.028s.05.012.059.028c.01.015-.002.028-.025.028s-.05-.013-.059-.028zm-3.602-.038a2.265 2.265 0 00-.23-.189c-.231-.17-.433-.34-.433-.367 0-.03.108-.027.148.005.242.193.62.542.63.58.015.058-.048.042-.115-.029zm-.998-.046c0-.016.013-.028.03-.028.015 0 .021.012.012.028-.01.015-.023.028-.03.028-.007 0-.012-.013-.012-.028zm3.621-.112c-.01-.015-.004-.028.013-.028.016 0 .03.012.03.028 0 .015-.006.028-.013.028-.007 0-.02-.013-.03-.028zm-.846-.508c-.046-.046.008-.107.095-.107.071 0 .087.051.033.106-.043.042-.086.043-.128 0zm-2.14-.206c0-.015.019-.031.045-.036.033-.007.041.004.03.036-.019.047-.07.047-.074 0zm-.216-.041c0-.016.013-.028.03-.028.016 0 .022.012.012.028-.01.015-.023.028-.03.028-.006 0-.012-.013-.012-.028zm.32-.11c-.023.038-.068-.02-.066-.086.001-.028.01-.023.026.014l.024.056.005-.056a.656.656 0 00.004-.071c0-.008.022-.017.051-.02.06-.004.112.11.06.127-.018.006-.024.025-.013.043.012.02.002.019-.025-.003-.034-.027-.05-.028-.065-.004zm-.264-.282c0-.015.02-.028.044-.028.024 0 .035.013.026.028-.01.016-.03.028-.044.028-.014 0-.026-.012-.026-.028zm-.14-.054c0-.075.053-.1.104-.05.051.051.026.104-.05.104-.035 0-.054-.019-.054-.054zm-.136-.251c-.037-.125-.042-.254-.009-.254.013 0 .057.051.098.114.059.09.069.126.046.168-.016.03-.021.054-.012.054.009 0 .009.012 0 .026-.031.05-.09-.002-.123-.108zm-.171-1.4c0-.016.012-.029.027-.029a.028.028 0 010 .056.028.028 0 01-.027-.028zm9.816 4.878c0-.036-.2-.097-.242-.073-.034.018-.014.032.083.056.145.037.159.038.159.017zm-.34-.113c-.032-.031-.066-.039-.111-.024-.064.02-.064.022-.01.043.03.012.08.023.11.024.05.001.052-.002.01-.043zm-.247-.04a.54.54 0 00-.14-.021c-.063 0-.062.003.014.022.046.011.109.021.14.022.043 0 .04-.005-.014-.022zm-.27-.068c-.01-.025-.029-.042-.044-.037-.042.014-.03.063.018.073.03.006.038-.005.026-.036zM2.778 9.068c.083-.122.1-.315.028-.315-.05 0-.126.159-.105.215.008.02-.006.068-.03.105-.097.17.057.067.107-.005zm8.49-.493c.27-.245.402-.343.586-.435.268-.133.572-.338.565-.38-.003-.016-.068-.03-.144-.031-.168-.004-.277-.069-.3-.18-.009-.046-.026-.083-.038-.083a.518.518 0 00-.117.133 4.048 4.048 0 01-.236.287c-.076.084-.178.21-.225.28-.047.068-.147.183-.222.254-.302.288-.37.373-.342.424.015.027.05.048.076.048.027 0 .205-.142.397-.317zm.642-.662c0-.036.08-.069.105-.043.01.01 0 .03-.022.045-.054.034-.083.033-.083-.002zm-9.117.616c0-.058-.068-.077-.098-.028-.027.043-.098.033-.098-.014 0-.053-.03-.053-.1-.002-.052.038-.05.04.025.07.043.016.122.03.175.03.077 0 .096-.011.096-.056zm.392-.21c0-.023-.018-.042-.039-.042s-.054.019-.073.042c-.03.036-.024.042.038.042.047 0 .074-.015.074-.042zm7.22-.096c.035-.061.181-.23.324-.376.142-.145.258-.287.258-.314 0-.027.021-.072.047-.1.062-.069.04-.084-.144-.094-.151-.008-.157-.006-.194.08a1.02 1.02 0 01-.19.234.76.76 0 00-.226.345c-.07.186-.071.204-.03.267.025.038.054.068.066.068.012 0 .052-.05.088-.11zm.079-.393c.016-.031.036-.056.044-.056.007 0 0 .025-.016.056-.017.03-.036.056-.044.056s0-.026.016-.056zm-7.534.106c-.024-.12-.045-.137-.136-.113-.11.03-.1.068.034.14l.12.064zm.374.02c.029-.035.027-.042-.007-.042a.069.069 0 00-.059.041c-.009.024-.005.042.008.042.013 0 .04-.018.058-.042zm-.065-.133a.753.753 0 00.177-.412c0-.06.013-.117.028-.127.051-.031.03-.15-.042-.226-.068-.074-.072-.074-.126-.025-.073.066-.07.093.014.114.077.02.096.067.028.067-.086 0-.118.199-.055.346.02.046.012.05-.062.034-.058-.013-.094-.006-.118.023-.041.05-.018.1.045.1.033 0 .04.02.027.085-.02.1.007.106.084.02zm6.217-.397c.025-.03.025-.055.001-.1-.027-.05-.039-.054-.077-.023-.04.033-.038.038.016.046.084.013.077.061-.009.061-.038 0-.07.013-.07.028 0 .042.1.034.138-.012zm-.279-.044c.034-.022.03-.027-.019-.027-.034 0-.069.012-.079.027-.022.036.043.036.098 0zm.644-.093c0-.04.01-.043.058-.017.044.023.079.023.138-.002.157-.065.213-.196.083-.196-.029 0-.06-.01-.068-.024-.018-.03-.24.075-.24.113 0 .015-.012.019-.027.01-.042-.027-.032.048.015.11.036.048.04.049.04.005zm-.112.016c0-.015-.02-.044-.042-.063-.024-.02-.042-.022-.042-.007 0 .016.019.044.042.063.023.02.042.023.042.007zm-.17-.03c.002-.047-.086-.2-.116-.2-.021 0 .03.11.065.14.009.007.024.032.033.055.011.03.016.032.018.005zm-.263-.006c.018-.029-.033-.111-.067-.11-.01 0-.04.032-.068.07l-.05.07h.083c.046 0 .092-.014.102-.03zm-.546.001a.028.028 0 10-.028.028.028.028 0 00.028-.028zm-4.503-.037c0-.052-.045-.086-.067-.05-.009.014.003.04.026.06.033.028.041.026.041-.01zm4.755-.37c0-.024-.013-.036-.028-.026-.016.01-.028.029-.028.043 0 .015.012.027.028.027.015 0 .028-.02.028-.044zm-.252-.04c.036-.023.035-.027-.007-.028-.027 0-.049.012-.049.028 0 .034.003.034.056 0zm-5 .009c-.021-.009-.045-.007-.055.002-.009.01.008.016.037.015.033-.002.04-.008.017-.017zm6.468-.037c.037-.016.042-.025.014-.026-.023 0-.06.01-.084.026-.05.033-.007.033.07 0zm-5.68-.025c.023-.035-.184-.171-.26-.171-.03 0-.063.013-.073.028-.035.057-.1.026-.116-.055a.237.237 0 00-.055-.116c-.021-.017-.038-.047-.038-.066 0-.019-.026-.057-.056-.085-.055-.05-.056-.048-.056.035 0 .046.018.1.04.118.03.024.036.07.025.167-.014.11-.008.136.034.152.032.013.072-.002.114-.042.06-.056.07-.058.115-.017.062.055.301.094.327.053zm4.967-.047c0-.024-.013-.036-.028-.026-.015.01-.028.029-.028.043 0 .015.013.027.028.027.015 0 .028-.02.028-.044zM5.791 6.72c-.02-.008-.045-.007-.054.002-.01.01.007.016.037.015.032-.002.039-.008.017-.017zm-2.3-.164c0-.195-.026-.286-.074-.256-.034.021.003.378.044.419.023.023.031-.02.03-.163zm1.267-.018c.137-.153.097-.265-.103-.293a.76.76 0 01-.267-.104c-.169-.109-.405-.413-.384-.494a.303.303 0 00-.025-.154c-.053-.126-.05-.419.005-.581.053-.154.08-.178.14-.119.047.048.222.06.248.017.01-.014.039-.02.065-.011.036.011.033.003-.012-.036-.057-.05-.112-.167-.1-.213.004-.012-.019-.006-.05.014-.045.028-.069.026-.132-.012-.102-.062-.11-.1-.024-.122.094-.024.319.085.359.173.031.069.116.089.149.035.01-.017.002-.042-.02-.055-.025-.017-.003-.025.069-.025.097 0 .13-.024.356-.25.251-.25.283-.304.212-.363-.03-.024-.047-.022-.072.01-.019.021-.054.032-.078.023-.028-.011-.038-.006-.026.013.025.04-.356.23-.463.23-.116 0-.074-.046.128-.141.299-.141.34-.172.338-.257a.26.26 0 01.018-.109c.024-.039.081-.006.081.048 0 .022.013.04.028.04.016 0 .028-.023.028-.05 0-.028.019-.075.041-.105a.208.208 0 00.042-.092c0-.02.026-.058.056-.084.055-.046.095-.18.064-.212-.02-.019-.15.076-.399.292-.193.167-.478.363-.529.363-.016 0-.03.013-.03.028 0 .015.013.028.028.028.05 0 .027.07-.04.118-.064.046-.066.046-.082-.014-.025-.091-.022-.104.023-.104.024 0 .035-.016.026-.04-.009-.023.008-.046.043-.057.06-.02.076-.057.035-.082-.029-.017-.222.178-.33.336-.11.158-.372.464-.434.509-.029.02-.052.048-.052.061 0 .014-.03.058-.067.098-.037.04-.101.144-.143.232a.56.56 0 00-.065.348c.01.177.053.28.098.236.011-.011.027-.125.035-.253.01-.134.032-.252.054-.279a.162.162 0 00.024-.12c-.01-.053.004-.092.047-.133a.86.86 0 00.107-.132.222.222 0 01.104-.088c.065-.017.075.007.024.058-.038.038-.045.1-.062.55-.014.36.02.52.157.726.051.076.125.194.165.262.04.068.119.172.175.232.056.06.102.12.102.134 0 .034.072.06.163.058.047-.001.103-.033.152-.088zm-.203-2.136c0-.024.013-.036.028-.026.016.01.021.03.013.043-.024.04-.041.032-.041-.017zm.084-.434c0-.014.019-.026.042-.026.043 0 .055.033.024.065-.023.022-.066-.003-.066-.039zm.126-.082c.01-.015.038-.028.064-.027.04 0 .042.004.006.027-.055.036-.092.036-.07 0zm1.51 2.63c.01-.016-.003-.029-.028-.029s-.038.013-.028.028c.01.015.022.028.028.028.006 0 .018-.013.028-.028zm-.4-.006c.02-.06-.009-.135-.053-.135-.029 0-.035.018-.021.063.025.085.06.118.075.072zm2.72-.15a.633.633 0 00.17-.108.213.213 0 01.104-.06c.065-.016.08-.006.118.076l.043.093-.013-.11c-.018-.149-.048-.171-.157-.117-.113.057-.116.057-.184-.007-.103-.096-.157-.108-.379-.086-.118.012-.24.03-.272.04-.043.013-.079-.005-.14-.07-.086-.096-.142-.092-.141.01.001.126.084.186.286.205.164.015.2.03.285.111a.402.402 0 00.119.092c.012-.001.085-.032.162-.07zM2.93 6.312c.002-.057-.009-.105-.023-.105-.015 0-.034-.025-.044-.056-.01-.03-.03-.056-.045-.056-.014 0-.005.041.02.091.026.05.057.122.069.161.018.062.021.057.023-.035zm2.904-.128c-.003-.04-.014-.05-.032-.032-.018.018-.017.038.004.06.025.024.031.017.028-.028zM3.479 6.15c.01-.016.01-.064-.002-.105a1.198 1.198 0 01-.026-.187 1.48 1.48 0 00-.076-.306c-.055-.155-.08-.194-.13-.198-.052-.004-.06.01-.058.096 0 .055.008.084.016.065.034-.085.065.014.065.21 0 .176.012.232.071.333.072.123.107.146.14.092zm-.262-.391c.01-.162-.015-.234-.06-.167-.038.055-.024.286.018.3.02.007.035-.04.042-.133zm2.577-.045c.038-.038.018-.12-.037-.15-.033-.018-.055-.019-.055-.003 0 .015-.04.035-.09.046-.08.018-.083.022-.034.05.03.017.066.033.082.036a.487.487 0 01.07.023c.025.01.053.009.064-.002zm-.23-.216c-.043-.047-.054-.074-.03-.074.02 0 .03-.006.023-.014-.008-.008-.055.006-.105.031-.067.034-.1.037-.122.015-.045-.045-.104-.039-.104.01 0 .023.01.043.021.044l.119.011c.054.005.136.019.182.03l.084.02zm3.997-.24c0-.047-.013-.085-.028-.085-.015 0-.028.03-.028.068 0 .037.013.076.028.085.016.01.028-.018.028-.068zm-4.294.056c.019-.03-.025-.064-.051-.038-.027.027-.022.064.008.064.015 0 .034-.011.043-.026zm4.067-.198c.066-.073.075-.1.06-.202-.019-.144-.13-.227-.224-.168a.277.277 0 01-.124.035c-.038 0-.077.013-.086.028-.01.015-.004.028.012.028s.03.013.03.028c0 .015-.02.028-.042.028-.023 0-.042-.02-.042-.045 0-.035-.017-.04-.077-.026-.128.032-.14.066-.049.14.127.105.178.112.272.042.068-.05.089-.054.108-.023.038.06.03.136-.017.154-.066.025-.048.066.03.066.044 0 .101-.033.149-.085zm-6.05.027c.01-.017.012-.036.005-.043-.008-.008-.021.006-.03.03-.02.049-.003.057.025.013zm1.843-.103c.008-.022.008-.052-.001-.067-.02-.033-.096.024-.096.073 0 .047.078.042.097-.006zM7.8 4.99a.787.787 0 00-.055-.123c-.065-.128-.233-.237-.328-.213a.29.29 0 01-.162-.028c-.112-.053-.211-.04-.425.06-.08.037-.18.08-.223.097-.062.023-.07.034-.037.055a.282.282 0 00.122.027c.045 0 .095.02.112.043.017.023.08.05.14.06.102.016.109.013.094-.043-.015-.056-.008-.059.1-.042.064.01.141.03.17.046.044.022.067.013.118-.046.084-.097.12-.093.214.024.067.084.16.132.16.083zm1.813-.265c0-.038-.006-.054-.014-.035a.108.108 0 000 .07c.008.02.014.004.014-.035zM7.691 4.64c-.036-.03-.085-.055-.109-.055-.028 0-.019.019.029.056.093.074.168.073.08 0zm-2.633-.124c.036-.039.058-.078.049-.087-.025-.025-.189.08-.189.12 0 .058.07.042.14-.033zm3.959-.044c.06-.032.18-.084.264-.116.196-.073.223-.098.129-.122-.17-.043-.604.143-.604.258 0 .054.083.046.21-.02zm-.887-.117c-.017-.113-.467-.31-.573-.25-.04.023-.026.039.09.1.076.04.188.105.25.142.147.09.245.093.233.008zm-2.887-.008c.026-.04.039-.079.03-.088-.018-.018-.128.1-.13.138-.002.046.056.016.1-.05zm-.059-1.195c.369-.37.741-.813.741-.88 0-.052-.04-.044-.098.02-.027.03-.067.056-.087.056-.02 0-.08.06-.134.133-.246.335-.278.357-.252.168.015-.113.008-.105-.12.132a5.542 5.542 0 01-.264.434c-.146.21-.202.308-.174.308.011 0 .186-.167.388-.371zM2.9 3.132a.431.431 0 01.158-.1.36.36 0 00.15-.114c.041-.052.088-.095.105-.095.04 0 .264-.232.264-.273 0-.043-.016-.043-.093-.001a.323.323 0 01-.147.027c-.104-.007-.159.048-.216.22-.023.069-.059.125-.08.125-.046 0-.108.075-.088.107.008.013-.01.02-.04.014-.07-.011-.147.052-.147.12 0 .074.039.066.134-.03zm.38-.497c.029-.028.052.015.029.052-.018.029-.024.029-.034 0-.006-.019-.004-.043.005-.052zm.676-.01c.01-.016.012-.035.005-.042-.007-.008-.02.006-.03.03-.019.049-.003.057.025.013zm.078-.072a.077.077 0 00.018-.048c0-.017-.013-.015-.033.005-.018.018-.026.04-.018.047.008.008.023.006.033-.004zm-.191-.01c.01-.015.004-.027-.011-.027s-.036.012-.045.028c-.01.015-.005.028.01.028.016 0 .036-.013.046-.028zm-.406-.088c0-.024.02-.06.042-.08a.135.135 0 00.042-.09c0-.044-.016-.033-.072.049-.05.074-.063.114-.042.135.021.021.03.017.03-.014zm.39-.147c.02-.023.03-.058.023-.078-.008-.023-.025-.012-.047.03-.04.076-.025.107.024.048zm5.287-.066c0-.043-.015-.094-.033-.112a.392.392 0 01-.063-.124c-.039-.119-.152-.183-.258-.146-.116.04-.101.108.026.119.083.007.105.02.105.065 0 .055.161.274.202.275.012 0 .021-.034.021-.077zm-5.42-.417c-.02-.008-.044-.007-.053.003-.01.009.007.016.036.014.033-.001.04-.008.017-.017zm4.293-.221c-.01-.06-.043-.127-.076-.152-.036-.027-.051-.06-.04-.089.022-.058-.044-.094-.221-.12-.11-.017-.145-.037-.182-.101-.025-.044-.061-.08-.08-.08-.02 0-.062-.03-.094-.067A.845.845 0 007.054.85l-.18-.077-.07.066c-.038.036-.063.083-.054.105.008.022 0 .057-.017.078-.026.031-.014.038.06.038.103 0 .494.201.553.284.02.029.054.052.076.052.072 0 .17.06.196.12.017.037.072.073.143.093.063.018.144.049.179.067.062.033.063.031.046-.073zM4.347 1.57c.047-.042.132-.114.189-.16.152-.124.125-.142-.058-.04-.193.108-.3.205-.275.247.028.045.048.038.144-.047zM7.2 1.394c.022-.036-.036-.08-.107-.08-.057-.001-.063.03-.016.077.043.042.098.044.123.003zm-.174-.123c.02-.054-.039-.054-.11 0-.052.039-.051.04.02.041.04 0 .081-.018.09-.04zm1.586-.065a.915.915 0 00-.176-.166c-.119-.092-.2-.128-.408-.178-.236-.056-.263-.058-.303-.018-.088.088.04.142.248.104a.47.47 0 01.4.128c.058.064.219.181.25.181.009 0 .005-.023-.01-.051zm-3.784-.043c.196-.126.25-.184.2-.216-.06-.037-.067-.033-.1.056-.025.065-.05.084-.125.091-.073.007-.096.024-.103.072-.008.052-.022.06-.077.046-.038-.01-.068-.006-.068.007 0 .056.147.026.273-.056zm-.106-.128c.068-.044.02-.056-.055-.014-.04.022-.053.039-.028.039a.18.18 0 00.083-.025zm.522-.213c.143-.07.227-.14.2-.168-.009-.008-.051.016-.096.053a1.102 1.102 0 01-.206.125c-.07.031-.107.058-.084.058.023.001.107-.03.186-.068zM7.63.839c.023-.015.032-.036.02-.048C7.615.757 7.138.622 6.833.56A4.608 4.608 0 016.54.49c-.193-.057-.61-.011-.806.088-.141.071-.2.13-.164.165.008.009.099-.023.201-.07a.89.89 0 01.294-.087c.06 0 .117-.014.128-.031.026-.042.49-.006.641.049.062.022.21.07.329.106.119.036.247.086.285.11.079.052.123.056.182.019z"/>
    <g>
      <g>
        <path d="M23.934 1.093l-.04.013q.135-.042.145.049.014.05-.104.157-.138.113-.327.414-.62.95-1.145 2.287-.146.381-.265.778l-.057.197-.057.221-.038.184-.016.076.081-.05.206-.133.243-.153q.119-.076.192-.13.087-.058.21-.143l.094-.06q.075-.047.13-.088.061-.042.078-.063.083-.072.144-.06.06.005.103.054.042.05.051.11-.002.047-.017.099-.01.042-.04.067t-.069.045q-.033.01-.071.006-.051 0-.264.105-.208.096-.495.255-.28.156-.543.316l-.075.047-.035.144q-.183.917-.24 1.764-.006.088-.008.159l-.006.088q-.011.12-.126.156-.034.01-.056.01-.015-.004-.043-.026-.136-.068-.103-.352.012-.12.06-.378.053-.26.117-.537.193-.858.187-.88l-.166.114q-.17.107-.41.268-.245.154-.487.314-.241.161-.408.275l-.137.09.003.038q-.003.016.002.062l.02.072q.045.33-.035.848-.127.72-.401 1.383-.273.671-.56.963-.055.065-.094.084-.036.027-.067.021-.016-.003-.022 0l-.031-.007-.014.004q-.06-.005-.111-.06-.051-.054-.06-.137-.01-.044 0-.086.01-.042.05-.14.06-.153.154-.51.096-.35.274-1.07l.166-.662q.03-.134.044-.186.017-.075.032-.127l.013-.059-.08.056q-.073.054-.191.13-.783.515-1.099.644-.341.145-.495-.019-.183-.217.096-.78.362-.692.984-1.017.11-.05.246-.091.142-.044.242-.052.294-.02.49.084.033.013.042.018.015.003.02-.006.01-.019.04-.153.029-.135.062-.31.04-.176.068-.317.433-2.16.333-3.1-.007-.107-.05-.266l-.029-.108q-.012-.044-.024-.063l-.03-.054q-.133-.225-.373-.111-.372.193-.77.754-.392.551-.638 1.238-.242.7-.231 1.174.004.07.014.106.016.034.041.073.045.056.05.133.014.074-.022.132-.02.037-.058.057-.038.02-.08.025-.045-.002-.09-.035-.046-.033-.073-.08-.148-.384.231-1.471.172-.476.4-.93.234-.463.457-.774.546-.74.98-.624.298.103.395.598.09.52-.027 1.58-.045.43-.123.9-.078.47-.24 1.247-.007.057-.022.109-.024.156-.048.257-.017.1-.015.106.002.008.014.027l.03.03q.086.099.145.237.033.068.04.066.006-.002.075-.047.075-.046.18-.118.329-.219.714-.471.383-.26.707-.469.014-.004.025-.015.01-.02.02-.061l.032-.128q.005-.009.007-.025.256-1.057.678-2.04.39-.888.965-1.762.14-.215.215-.317.08-.11.121-.147.046-.045.093-.06zm-4.147 5.523q-.005.009-.019.068-.008.05-.024.125l-.03.134-.006.057.031-.018q.032-.017.069-.044.043-.03.075-.047.03-.025.035-.034-.002-.007-.019-.041-.01-.037-.035-.076-.02-.048-.043-.08-.013-.02-.024-.032l-.01-.012zm-.632.774q.148-.1.246-.17.105-.072.11-.081.005-.01.024-.101.026-.094.052-.212l.044-.217.026-.094q-.006-.022-.072-.049-.067-.033-.142-.041-.186-.037-.377.014-.29.066-.562.276-.628.49-.82 1.082-.097.288.098.306.069.01.192-.02.122-.037.25-.1.282-.15.93-.593zm.818-.057l.017.01q0-.055-.004-.124-.004-.07-.018-.12l-.008-.06q-.01-.005-.052.024-.046.022-.107.065l-.142.098-.129.58q-.343 1.546-.423 2.063-.013.059-.017.1-.004.04-.011.065-.001.024-.006.033l-.003.017q.002.007.009.005.007-.002.016-.02l.033-.042q.167-.247.334-.659.176-.406.31-.855.2-.695.2-1.18zM26.554 3.914l.007-.002q.041-.036.083-.018.046.01.062.067.013.05-.038.106-.028.032-.064.059-.327.28-.513.432-.179.149-.277.218-.091.068-.162.105-.218.115-.36.018-.135-.092-.155-.328-.006-.076-.011-.176.001-.103.016-.185 0-.024-.003-.039l.003-.016-.022.03q-.014.028-.04.067l-.06.105.016.057q.038.302-.097.344-.027.008-.06-.005-.033-.014-.056-.046-.002-.007-.01-.005-.001-.007-.006.002-.005.01-.021.03-.016.021-.042.06-.026.04-.069.1-.167.247-.273.397-.105.15-.203.25-.333.362-.522.123-.07-.096-.084-.256-.016-.52.43-1.173.35-.492.671-.356.099.04.163.145.024.032.038.058.02.018.026.016.014-.004.061-.074l.1-.171q.053-.103.103-.189.05-.085.062-.12.042-.115.11-.136.101-.032.14.113.001.03-.01.073-.005.033-.019.092-.026.118-.055.283-.028.166-.04.286-.01.097-.008.214 0 .11.003.172.03.139.24.02.108-.058.284-.19.175-.14.506-.43.087-.059.156-.127zm-1.924.65l.009.004.073-.108q.026-.04.035-.058.008-.026.006-.033.003-.017.001-.024-.006-.022-.016-.034-.004-.014-.037-.028-.173-.071-.412.237-.075.101-.17.288-.09.184-.142.317l-.06.207q-.025.101-.019.123.006.021.128-.095.18-.173.604-.797z"/>
        <path d="M28.584 3.443l.019.041q.034-.01.055.015.02.017.016.057-.006.034-.036.058-.17.155-.417.434-.248.273-.484.565l-.13.165.003.093q-.004.502-.064 1.146-.103 1.08-.287 1.78-.258.994-.716 1.44-.152.142-.295.178-.13.033-.224-.017-.294-.167-.234-.866.014-.138.05-.352.031-.213.075-.375.331-1.347 1.293-2.716l.056-.088q.028-.032.026-.04.006-.032 0-.187.002-.157-.004-.343-.008-.193-.016-.331-.01-.146-.021-.158l-.022.054-.062.12q-.095.194-.192.373-.092.177-.136.23-.11.135-.198.108-.087-.028-.126-.118-.025-.039-.038-.113-.022-.08-.032-.17V4.37l-.006-.077q-.002-.007.006-.033-.001-.03.005-.064l.004-.064v-.03q.006-.003.009-.02l.006-.032q.014-.083.054-.205.045-.131.091-.231.126-.266.268-.31.08-.025.16.028.086.044.111.138l.006.022q.009.005.016.003.006-.002.004-.01.003-.016.001-.023.013-.09.06-.128.047-.046.105-.048.056-.01.104.007.046.009.059.029.032.037.042.073.016.034.022.11.004.07.008.217 0 .11.003.257.001.14.009.248.003.038 0 .086v.133q.007.052.002.062.002.007-.005.009l.002.007q.007-.002.04-.043.04-.044.084-.097.503-.601.871-.942zm-1.627.581l.108-.22-.028-.024q-.01-.012-.03-.03l-.029-.053-.032-.037-.012-.02q-.014.005-.051.055-.031.049-.063.121-.14.294-.157.612-.004.173.016.167.007-.002.031-.048.029-.056.06-.129.039-.074.09-.184.057-.111.097-.21zm.258 2.229l.01.012q.022-.218.04-.45.017-.233.024-.399.006-.166-.003-.171-.006.002-.058.08-.054.072-.12.178-.069.1-.125.188-.417.653-.686 1.307-.049.117-.11.3-.064.192-.107.33-.105.346-.155.674-.048.336-.025.556.014.081.044.166.026.094.05.133.03.03.055.038.017.01.048.016.074.001.184-.08.339-.261.582-.93.229-.697.352-1.948z"/>
        <path d="M30.383 2.817l-.01-.012q.023.008.031.037.013.02-.005.064l-.104.126q-.468.544-.69.777-.216.23-.379.36-.556.43-.876.246-.046-.032-.097-.087-.051-.055-.079-.1-.01-.013-.012-.02l-.01-.013-.009-.029-.02-.072q-.01-.043-.019-.072-.007-.03-.01-.036l.003-.017q.006-.033 0-.086.012-.223.16-.487.19-.325.425-.241.164.066.132.272-.049.226-.245.42-.04.043-.071.061l-.068.02q-.025.016-.038.02-.014.005-.022 0l-.031-.006q-.035-.02-.045-.002-.011.011-.005.087.003.039.009.06-.001.024.011.044.006.021.02.048.106.202.417.106.425-.131 1.064-.853.068-.075.151-.172.109-.112.181-.196l.033-.042q.16-.167.208-.205zm-2.04.873l-.021.053.052-.023q.057-.034.105-.072.046-.046.088-.106.04-.067.058-.111.03-.08-.054-.038-.057.033-.122.116-.066.082-.105.18z"/>
        <path d="M30.402 3.43q-.072.084-.09.129-.019.092.01.145l.006.022q.002.007.009.005l.02-.006q.054-.017.117-.083.06-.074.118-.185.07-.147.112-.317l-.046.046-.13.118q.003.007-.004.01l-.036.026-.056.064q-.014.005-.03.025zm.104-1.214q.044.002.125.031.16.076.214.278.04.145.037.326.007-.003.011-.012.106-.095.22-.216.109-.112.234-.245.042-.114.038-.238.025-.07.105-.072.015.003.026.016.035.02-.008.213-.036.191-.08.33-.032.15-.05.328-.02.17-.016.264l.011.043q.01.005.02.018.02.017.053.007.034-.01.082-.05.055-.04.145-.138-.043-.159-.023-.384.009-.238.08-.463.023-.077.069-.178.046-.1.095-.162.14-.184.262-.222.074-.023.148.009.118.057.143.23.03.163-.05.328-.056.12-.133.104-.072.006-.09-.059l-.007-.028q-.004-.015-.001-.031l.013-.06.01-.018q.044-.162.015-.216l-.004-.014q-.002-.007-.009-.005l-.02.006q-.056.01-.117.083-.06.073-.127.18-.106.228-.14.512-.032.285.044.457.13.32.594-.02.117-.083.24-.191.123-.116.352-.352.019-.013.028-.032l.035-.034.02-.006q.009.005.01.012.007-.002.011.013.009.005.015.026l.008.03q.002.007-.003.016l-.005.01-.005.008-.007.003q-.197.217-.384.392-.188.168-.312.253-.253.172-.434.15-.21-.045-.294-.246-.085.09-.154.134-.158.119-.262.003-.032-.037-.05-.102-.02-.073-.016-.144.002-.071.022-.187.027-.118.049-.226.022-.054.034-.089.013-.035.006-.033-.014.004-.071.061l.005-.01q-.053.048-.12.124-.149.155-.264.246l-.006.002q-.013.223-.076.422-.023.078-.07.178-.046.1-.095.162-.147.187-.268.224-.068.021-.14-.003-.12-.065-.108-.21.01-.152.108-.276l.183-.19.012-.01.14-.13q.111-.105.17-.155l.01-.05q.032-.283-.043-.455-.047-.119-.15-.15-.045-.002-.12.021-.081.05-.108.112-.055.12-.069.178-.013.059-.054.071-.042.006-.077-.015-.047-.04-.051-.109-.006-.076.035-.113.025-.015.102-.11.084-.096.19-.136.067-.021.112-.02z"/>
        <path d="M35.045 1.447l.018.041q.034-.01.055.014.02.018.016.058-.006.033-.036.058-.17.154-.416.434-.249.272-.484.564l-.131.166.003.093q-.003.502-.063 1.146-.104 1.08-.288 1.779-.258.995-.715 1.441-.152.141-.296.178-.13.032-.224-.017-.294-.167-.234-.867.014-.137.051-.352.03-.213.074-.375.332-1.346 1.293-2.715.03-.049.057-.088.028-.032.026-.04.005-.033 0-.187.002-.157-.005-.343-.008-.193-.016-.332-.01-.145-.02-.157l-.023.053-.062.121q-.094.194-.192.373-.091.176-.136.23-.11.135-.197.107-.088-.027-.127-.117-.025-.04-.038-.114-.021-.079-.031-.17v-.055l-.006-.076q-.002-.007.005-.033 0-.03.005-.064l.005-.064-.001-.031q.006-.002.01-.019l.005-.033q.014-.082.054-.204.045-.132.091-.232.126-.266.268-.31.081-.024.161.029.085.044.11.138.003.007.006.022.01.005.016.003.007-.002.005-.01.003-.016 0-.023.013-.09.061-.129.046-.045.104-.047.056-.01.104.007.047.009.06.028.031.037.041.073.017.034.023.11.004.07.007.218 0 .11.004.257 0 .14.008.248.003.038.001.085v.133q.006.053.002.062.002.008-.005.01l.002.007q.007-.002.04-.044.039-.043.083-.096.503-.601.872-.942zm-1.628.581l.109-.221-.028-.023-.03-.03-.03-.053-.031-.037-.013-.02q-.014.004-.051.055-.03.049-.062.12-.14.295-.157.613-.004.173.016.167.007-.002.03-.049.03-.056.061-.128.038-.074.09-.184.057-.112.096-.21zm.258 2.228l.01.013q.022-.218.04-.45.018-.233.024-.4.006-.165-.002-.17-.007.002-.059.08-.054.072-.12.178l-.125.187q-.416.653-.686 1.308-.049.116-.109.3-.065.192-.108.33-.104.345-.155.674-.048.336-.025.555.015.082.045.167.025.093.05.133.03.03.054.038.018.01.049.016.073 0 .183-.08.339-.261.582-.931.23-.697.352-1.948z"/>
        <path d="M37.55.516l.008-.002q.041-.036.083-.018.046.01.062.067.013.05-.038.105-.028.033-.064.06-.327.28-.513.432-.179.149-.277.218-.092.068-.162.105-.218.114-.36.018-.135-.092-.155-.328-.006-.076-.011-.177.001-.102.016-.184 0-.024-.003-.039l.002-.016-.02.03q-.015.028-.041.067l-.06.105.016.057q.037.302-.098.343-.027.009-.06-.005-.032-.013-.055-.045-.002-.007-.01-.005-.001-.007-.006.002-.005.01-.021.03-.016.02-.042.06-.026.04-.069.1-.167.247-.273.397-.105.15-.203.25-.334.362-.522.123-.07-.096-.084-.256-.016-.52.429-1.173.35-.492.672-.357.098.04.163.146.024.031.038.058.02.018.026.016.014-.005.06-.074.046-.076.1-.172.054-.102.104-.188.05-.086.062-.12.042-.116.11-.136.1-.032.14.113 0 .03-.01.073-.005.033-.019.092-.026.118-.055.283-.028.165-.04.286-.01.097-.008.214 0 .11.003.171.03.14.24.02.108-.057.284-.19.175-.14.506-.43.087-.058.156-.126zm-1.923.65l.009.004.073-.108q.026-.04.035-.058.008-.026.006-.033.003-.017.001-.024-.006-.022-.017-.034-.003-.015-.036-.028-.173-.072-.412.237-.075.101-.17.287-.09.185-.142.318l-.061.207q-.024.1-.018.122.006.022.128-.094.18-.173.604-.797z"/>
      </g>
      <g>
        <path d="M39.904 6.314q.024-.213.044-.496-.092.04-.179.069-.069.339-.113.709.101-.13.126-.146l.065-.077zm.202-.21q.052-.05.059-.052.006-.003.029-.026l.065-.077.023-.024.006-.002.111-.125-.038-.002q-.09-.009-.206-.025-.016-.002-.022 0-.016.17-.027.332zm-.224.51l-.007.002-.027.033-.218.208-.005.033q-.08.77-.038 1.236l.02.167q.015.073.023.126.015.05.02.04.015-.02.045-.244.036-.225.071-.529.04-.313.075-.617zm.126-1.558l-.012-.067-.018.038q-.026.087-.06.218l-.07.26.004-.01q-.021.079-.033.162l.152-.083q.029-.373.037-.518zm.21-.656q.041-.037.08-.082.184-.173.543-.43.254-.188.37-.291.122-.112.156-.195.073-.151-.09-.3-.285-.266-.951-.473-.009.168-.024.34-.015.249-.022.448zm-.06-1.817q-.277-.11-.66-.161-1.008-.115-1.966.109-.69.163-1.17.508-.087.077-.22.202-.125.121-.187.213-.475.683-.136 1.277.046.08.125.17.076.085.162.174.233.213.568.446.339.223.633.32.295.097.487.15l.286.069q.1.013.656-.027.376-.025.946-.314.13-.557.319-1.134l.055-.16.03-.469q.04-.738.072-1.373zm.124 2.821q.038-.02.067-.022.035-.005.049-.01.02-.006.029-.025l.027-.009q.011-.012.031-.019l.074-.025.02-.006q.042-.007.071-.009.033-.011.042-.006.111.001.184.095.07.087.05.22-.01.042-.041.084-.025.04-.054.066-.047.04-.157.14l-.219.209q-.027.033-.051.05-.259.221-.268.24l-.045.047-.053.815q-.015.368-.031.586-.019.212-.034.335l-.018.188q-.01.066-.021.125-.024.142-.063.21-.038.07-.097.097l-.006.002q-.014.005-.012.012l-.022.023q-.02.031-.078.035-.06.02-.093-.016-.027-.038-.054-.179-.116-.489-.05-1.458.006-.104.02-.204-.036.028-.065.054-2.746 2.394-4.872 3.402-.051.026-.125.05-.072.033-.125.051-.11.03-.17.026-.064.006-.117-.023-.075-.053-.087-.12-.015-.074.042-.133l.017.01q.027-.033.063-.037.033-.011.098.006.07.016.148.005.076-.018.264-.082l.187-.064q.092-.039.136-.062 1.58-.766 3.6-2.425.207-.173.454-.383.254-.213.44-.379.07-.063.133-.124.047-.41.137-.828-.43.163-.647.205-.359.083-.681.09-.324 0-.898-.168-.575-.174-1.262-.745-.096-.078-.215-.203-.12-.133-.177-.224-.464-.717.088-1.537.07-.11.183-.228.118-.126.214-.198l.029-.002q.77-.586 2.071-.698 1.01-.075 1.817.257.017-.463.029-.87-.001-.299.003-.482.003-.19 0-.276 0-.095-.003-.133.003-.04-.004-.062-.01-.06-.005-.093.01-.042.034-.082.037-.076.103-.099.072-.032.136.01.053.029.072.117.017.081-.022.15-.005.009-.024.094-.018.086-.038.195-.019.109-.027.206-.037.32-.075 1.233-.008.05-.006.104l-.005.033q.79.228 1.102.532.257.292-.03.594-.06.068-.168.152-.103.075-.339.226-.228.149-.347.244-.121.089-.207.173-.072.08-.128.163-.024.292-.065.85l.132-.077z"/>
        <path d="M42.2 6.352l-.001-.007q-.01-.005-.011-.012-.011-.012-.031-.029l-.04-.034q-.02-.017-.026-.014l-.025.04-.066.101q-.043.054-.083.115-.245.391-.316.676-.086.329.09.324.022 0 .067-.023l.096-.048q.134-.093.245-.265.05-.08.09-.172.045-.095.07-.182.01-.043.013-.107.007-.074.003-.112-.003-.062-.022-.126-.022-.072-.052-.125zm-.158-.237l-.005-.015q-.008-.028-.028-.045-.035-.044-.056-.115-.024-.079-.027-.165.003-.087.023-.22.026-.135.054-.263l.03-.097q.016-.045.01-.043-.02.007-.257.277-.284.333-.441.45-.16.11-.255.063-.112-.057-.134-.254l.001-.095q.001-.072.009-.145.012-.083.013-.155-.002-.078.001-.118.003-.214.11-.25.114-.04.16.118.007.021.009.052 0 .024-.023.071l-.048.135q-.026.064-.047.166-.015.1-.023.197-.01.09.001.126.028.093.2-.021.065-.054.183-.18.121-.136.248-.282.13-.155.225-.258.102-.106.13-.131.019-.014.034-.012.014-.004.025.008.044.024.04.088.004.062-.042.228-.036.178-.056.382-.014.202-.004.309l.013.043.022.024q.028.022.062.01.04-.014.098-.065.21-.166.81-1.072l.01.012.032-.043q.095-.15.134-.219l.023.08q-.038.067-.122.183-.36.572-.55.826-.19.254-.318.345-.059.051-.108.084.042.041.07.087.028.045.05.117.032.083.038.176.01.084-.007.2-.013.107-.045.197-.026.087-.076.191-.087.18-.228.322-.077.09-.17.152-.091.063-.156.07-.046.015-.095 0t-.075-.053q-.024-.031-.037-.074-.013-.043-.01-.084-.006-.045.004-.111.01-.067.03-.145.076-.317.457-.92.036-.052.05-.08.02-.031.03-.05z"/>
        <path d="M45.057 4.575l.002.007q.056-.058.14-.126.082-.068.143-.112l.03.1q-.02.007-.142.12-.115.11-.25.25-.106.115-.227.251-.115.134-.201.242-.088.101-.097.12-.005.01-.012.036l-.005.057q-.069.883-.278 1.767-.207.89-.499 1.495-.312.635-.57.588-.248-.042-.229-.671.035-.8.569-1.906.278-.552.717-1.159l.079-.106.013-.178q.013-.328.006-.601-.003-.283-.026-.41l-.024-.078-.163.245q-.433.676-.607.735-.04.014-.087.006-.04-.01-.07-.04-.07-.086-.092-.283l-.002-.055-.006-.022.002-.016q0-.024.005-.057t.003-.064l.008-.05v-.126q0-.095.02-.126.019-.038.073-.056.02-.007.04.01.026.015.05.046.04.058.005.164-.033.114-.052.247-.013.13-.003.214.002.03.008.052.011.012.027.015.081.05.287-.2.027-.033.058-.076l.093-.134q.055-.09.161-.252l.082-.122q.04-.062.067-.095.039-.044.052-.072.014-.029.021-.055.01-.066.053-.097.04-.037.095-.024.11.049.107.184-.007.026-.003.088.001.055.007.124.031.328.025.654-.003.088-.009.145l.002.055.034-.036q.034-.035.076-.089.11-.124.253-.267l.24-.256zm-.93 1.808l.007-.003q.015-.123.03-.27.022-.15.034-.256.017-.117.01-.114-.006.002-.07.087L44 6.03l-.138.205q-.48.74-.7 1.414-.146.452-.19.822-.015.1-.014.226.002.133.01.21.01.082.04.159.026.086.055.108.055.036.15-.067.119-.12.276-.457.08-.177.15-.343.061-.163.133-.369.233-.726.355-1.556z"/>
        <path d="M45.98 2.944q.013-.202-.019-.31-.024-.18-.126-.225-.163-.102-.549.187-.262.208-.419.45-.156.243-.163.443-.003.087.042.167.044.071.171.178l.101.092q.05.046.075.077l.053.053.032-.137q.027-.136.073-.301.045-.173.086-.306.046-.142.065-.18.038-.068.096-.072.065-.006.117.047.097.101.002.252-.062.116-.15.39-.081.272-.133.519l-.021.102.047.157.027.141q.01.06.014.098.011.185-.08.398-.04.092-.081.051-.013-.02-.027-.015-.006.003-.015-.002l-.027-.015q-.08-.044-.1-.187-.01-.107.004-.309.007-.2.034-.406.003-.04.003-.064.007-.026.003-.04-.004-.015-.015-.027-.026-.038-.088-.096-.068-.056-.134-.104-.13-.09-.189-.165-.068-.079-.091-.182l-.004-.014-.006-.069q-.004-.038-.004-.062.024-.268.23-.567.056-.082.164-.19.113-.117.196-.185.099-.089.175-.13.083-.045.19-.081.06-.02.09-.023.033-.011.048-.008.02-.007.042-.007.194.005.285.163.015.027.028.07.017.033.032.107.034.115.041.262-.024.166-.125.075zm-.69 1.647l.009.004q-.01-.083-.033.114-.015.147-.014.226 0 .071.017.105.004.014.013.019l.004.014.002.007.005-.01.013-.028.01-.042q.012-.06.015-.124.003-.064-.02-.166-.004-.038-.015-.074-.004-.038-.006-.045zM49.084 2.62l.006-.002q.041-.037.083-.02.047.008.064.065.015.05-.035.106-.027.033-.063.061-.32.29-.501.447-.176.154-.272.227-.09.07-.16.11-.214.12-.36.027-.136-.087-.162-.323-.008-.076-.016-.176 0-.103.012-.186 0-.023-.004-.038l.002-.016-.02.03q-.014.029-.039.069l-.057.106.017.057q.045.3-.089.346-.027.01-.06-.003-.033-.013-.057-.044-.002-.007-.009-.005-.002-.007-.006.002-.005.01-.02.031-.017.021-.042.061l-.065.102q-.161.252-.263.405-.102.153-.197.256-.325.37-.52.137-.072-.093-.09-.253-.028-.519.4-1.185.337-.502.663-.376.1.037.167.14.024.032.039.058.02.017.026.015.014-.005.06-.075l.095-.175q.05-.104.098-.19.047-.088.059-.124.04-.116.106-.138.1-.035.143.109.002.03-.007.073-.005.033-.017.093-.024.118-.048.284-.024.166-.033.287-.008.098-.002.214l.006.172q.034.138.24.013.108-.06.28-.198.171-.145.495-.445.085-.06.153-.13zm-1.907.705l.009.005.07-.111q.025-.04.034-.059.007-.026.005-.033.003-.017 0-.024-.006-.021-.017-.034-.004-.014-.037-.026-.175-.067-.406.248-.072.104-.163.293-.085.186-.133.321l-.056.208q-.022.102-.015.124.006.021.125-.098.176-.178.584-.814z"/>
      </g>
    </g>
  </g>
</svg>
