<svg xmlns="http://www.w3.org/2000/svg" width="200" height="180" viewBox="0 0 52.917 47.625">
  <g fill="#a33">
    <path d="M37.062 30.77c.106.028.17.002.174-.071.01-.191.76-.756 1.77-1.336.525-.301 1.101-.693 1.28-.871.306-.303.353-.32.72-.28 1.113.12 1.842.268 2.006.404.058.048.142.065.186.037.088-.054 1.024.144 1.202.254.06.037.261.074.448.082.447.02 1.032.263.915.38-.088.088-.745-.03-1.06-.19-.105-.054-.147-.042-.147.042 0 .11.349.215 2.232.678.31.076.536.094.585.047.05-.049.031-.078-.05-.078-.155 0-.45-.303-.351-.36.122-.073.431.092.484.257.076.241.406.362.733.268.314-.09.973-.694 1.1-1.007.123-.305.09-2.098-.046-2.493-.083-.241-.167-.336-.316-.357a.76.76 0 01-.314-.122c-.101-.083-.406-.15-1.278-.28a2.277 2.277 0 01-.463-.117c-.092-.04-.433-.13-.758-.198a49.032 49.032 0 01-2.273-.517 58.782 58.782 0 00-2.293-.554c-.38-.085-.763-.192-.85-.238a.533.533 0 00-.333-.038c-.097.025-.314 0-.483-.055l-.306-.1-.612.576a27.08 27.08 0 01-1.234 1.082c-1.47 1.194-2.556 2.052-3.146 2.484-.347.255-.633.513-.635.573-.004.12.23.606.292.606.094 0 1.142-.42 1.518-.61.23-.115.703-.268 1.05-.338.398-.081 1.03-.32 1.711-.647 1.113-.533 1.27-.56 1.594-.276.194.17.188.534-.013.79-.172.218-1.766 1.25-1.932 1.25-.055 0-.47.186-.92.413-.45.227-.99.476-1.198.554.178.316.774.3 1.01.356zm9.073-1.255c-.24-.092-.31-.23-.126-.246.368-.034.872.196.775.353-.053.085-.221.057-.649-.107zm2.155-.116c-.028-.073-.01-.172.038-.22a.209.209 0 00.045-.205c-.025-.065.023-.137.112-.164a2.13 2.13 0 00.302-.127c.333-.178.316.035-.038.496-.293.382-.38.424-.459.22zm-.556-.015c-.225-.25-.27-.596-.1-.783.291-.322.496-.127.283.27-.066.125-.066.198 0 .265.109.108.124.395.021.395-.04 0-.13-.066-.204-.147zm-.988-.442c0-.047.04-.085.09-.085.048 0 .065.038.036.085-.028.046-.068.084-.089.084-.02 0-.037-.038-.037-.084zm-.926-.271c0-.034.06-.038.133-.01.074.029.216.06.316.071.335.036.351.043.242.113-.116.073-.691-.071-.691-.174zm2.329-.862c-.059-.613-.05-.762.055-.867.07-.069.162-.104.205-.077.124.077.202 1.497.09 1.632-.186.224-.28.04-.35-.688zm-3.556.662c-.676-.217-.879-.304-.879-.377 0-.062.315.01.674.155.07.028.164.057.21.063.569.08.895.157.933.218.075.12-.49.085-.938-.059zm2.974-.58c.025-.13.08-.185.156-.156.129.05.143.116.069.31-.078.202-.268.071-.225-.154zm-2.084.211c0-.045.057-.06.126-.033.07.027.126.063.126.082 0 .018-.056.033-.126.033s-.126-.037-.126-.082zm-2.021-.002c0-.047.016-.085.037-.085.02 0 .06.038.089.085.029.046.012.084-.037.084-.05 0-.09-.038-.09-.084zm-.506-.085c0-.046.074-.084.164-.084.09 0 .187.038.215.084.03.048-.04.085-.163.085-.119 0-.216-.038-.216-.085zm3.711-.563c.211-.614.543-1.177.763-1.295.225-.12.304-.035.14.152-.193.222-.53.862-.654 1.243-.06.185-.15.363-.2.395-.19.123-.206-.039-.049-.495zm-5.02.305c-.729-.173-1.049-.308-1.049-.442 0-.04.11-.047.242-.018.177.039.256.018.293-.077.07-.183.17-.163.267.054.057.127.174.195.373.217.16.018.4.089.534.158.222.115.253.113.36-.028a.633.633 0 00.118-.216c.002-.035.043-.063.092-.063.05 0 .07.03.048.067-.023.037-.008.12.032.186.106.172-.061.336-.341.336-.13 0-.565-.078-.968-.174zm3.93-.427c.306-.737.643-1.3.85-1.415.315-.178.39-.048.132.227-.24.256-.682 1.105-.774 1.486-.054.222-.072.233-.191.113-.115-.115-.117-.167-.016-.411zm-.959.293a.482.482 0 01.253-.003c.082.021.035.04-.104.042-.139.002-.206-.016-.149-.039zm-.333-.563a8.2 8.2 0 00.22-.562c.165-.467.568-.925.813-.925.172 0 .167.017-.08.298-.304.347-.616.937-.773 1.462-.11.368-.111.368-.188.139a.568.568 0 01.008-.412zm3.219.256c0-.378.67-1.067 1.039-1.069.2 0 .135.2-.078.24-.243.046-.365.173-.59.618-.222.437-.371.522-.371.21zm-2.695.158c0-.02.061-.097.135-.171.107-.107.161-.114.257-.035.098.081.1.114.012.17-.114.073-.404.098-.404.036zm-7.41-.134c0-.051.094-.063.231-.03.33.079.342.116.035.116-.147 0-.267-.039-.267-.086zm6.035-.138c-.078-.078.108-.282.258-.282.074 0 .106.05.078.122-.027.07.013.136.096.158.079.02.026.042-.117.048-.142.005-.284-.016-.315-.046zm-.515-.81c.133-.41.462-.95.665-1.091a.535.535 0 01.251-.063c.148-.002.143.02-.054.23-.261.279-.656 1.046-.656 1.275a.53.53 0 01-.148.314c-.14.14-.148.139-.174-.039-.015-.102.037-.384.116-.626zm-.587.6c.041-.066-.008-.083-.158-.054-.275.052-.476-.056-.345-.187.112-.112.537-.02.54.115 0 .053.037.04.082-.03.045-.07.082-.086.083-.038 0 .05-.044.134-.1.19-.128.128-.18.13-.102.004zm-1.144-.201c0-.65.711-1.976 1.06-1.976.162 0 .159.008-.167.493-.158.233-.351.607-.43.83-.284.795-.316.867-.389.867-.04 0-.074-.097-.074-.214zm-2.98.005c-.273-.065-.536-.158-.583-.205-.126-.126.139-.206.517-.155.304.04 1.11.363 1.11.444 0 .078-.554.033-1.045-.084zm4.27-.397c.027-.067.047-.047.05.051.004.089-.016.139-.044.11-.027-.027-.03-.1-.006-.16zm-2.546-.075c.1-.063.1-.075-.007-.077-.07 0-.018-.058.114-.127.234-.122.437-.1.35.04-.023.038.013.09.08.116.105.04.272-.22.236-.37-.006-.025.06-.05.145-.057.219-.017.27.18.08.317-.096.07-.128.147-.082.202.05.062-.098.08-.48.06-.367-.019-.514-.054-.436-.104zm-.432-.192c.048-.048.088-.174.088-.28 0-.105.062-.345.137-.534.075-.188.115-.363.088-.39-.026-.027-.164-.008-.305.041-.141.05-.257.059-.257.02 0-.138.238-.261.6-.31.202-.027.405-.083.449-.125a.329.329 0 01.196-.076c.077 0 .034.108-.126.316-.227.295-.502.838-.568 1.12-.1.427-.15.504-.27.405-.083-.069-.093-.126-.032-.187zm-1.196-.038c-.042-.164.198-.521.35-.521.113 0 .083.522-.034.61-.145.106-.274.07-.316-.09zm4.017-.178a.764.764 0 01.24-.188c.17-.09.169-.081-.024.12-.203.211-.33.25-.216.068zm-1.47-.29c0-.018.066-.085.147-.148.134-.105.137-.102.032.032-.11.14-.179.185-.179.115zm-32.98 1.49c.004-.515.006-.52.221-.478.145.029.287-.014.425-.13l.207-.172-.395-.003c-.217-.002-.418.035-.447.082-.082.133-.459.098-.703-.067-.44-.296-.673-.374-.994-.334-.403.051-1.557-.156-1.645-.296a.712.712 0 01-.067-.308l-.001-.204.189.173c.464.422 1.356.568 1.706.278.106-.089.157-.082.286.034.086.078.316.15.512.16.288.013.38-.02.487-.18l.133-.196-.476.043c-.592.054-.705-.076-.181-.208.447-.112.36-.233-.135-.183-.197.02-.332-.003-.332-.056 0-.048.107-.088.238-.088a.635.635 0 00.427-.201l.19-.202-.19-.177c-.264-.246-.17-.287.224-.097.56.272.669.259.669-.078 0-.268-.026-.297-.318-.366-.174-.042-.356-.147-.403-.235-.094-.177-.387-.208-.686-.071-.44.2-.744 1.152-.425 1.334.117.067.129.115.055.236-.276.449-.59.025-.494-.668.06-.441.063-.438-.261-.315-.266.101-.542.036-.542-.13 0-.16.156-.24.278-.14.224.183.605.064.925-.29.361-.4.419-.61.112-.41-.22.145-.666.133-.936-.024-.165-.096-.164-.098.016-.1.102-.002.21-.044.242-.095.037-.06.191-.071.447-.03.214.034.455.068.536.076.08.008.171.04.203.072.105.106.348.06.4-.073.027-.073.089-.108.136-.079.047.03.059.098.025.153-.033.055.032.038.145-.036a.665.665 0 00.252-.337c.037-.156.104-.201.296-.201.362 0 .377.247.022.376-.251.092-.261.108-.106.169a.867.867 0 01.294.218c.114.139.108.145-.087.088-.363-.107-.456-.098-.486.05-.019.09.062.189.218.27.23.118.259.116.393-.033a.68.68 0 01.368-.186c.123-.014.214-.071.204-.126-.01-.055.057-.124.15-.154.101-.032.191-.155.22-.302.028-.136.083-.268.123-.293.04-.025.073-.166.072-.314 0-.148-.029-.229-.063-.18-.086.124-.792.46-.868.413-.034-.02-.1-.15-.148-.286-.067-.192-.06-.27.034-.347.094-.078.12-.075.12.012 0 .08.026.085.091.02.05-.05.08-.181.064-.29-.024-.166-.078-.2-.315-.2-.158 0-.303-.045-.322-.1-.048-.143 1.155-.042 1.33.111.21.181.355.15.247-.053-.05-.093-.155-.169-.235-.169-.08 0-.253-.057-.385-.126-.133-.07-.292-.126-.353-.126-.168 0-.234-.16-.121-.295.083-.101.127-.102.28-.007.1.063.287.138.414.167.127.03.231.093.231.141 0 .049.036.066.08.039.043-.027.286-.017.54.023.324.051.516.042.65-.03l.191-.102-.18-.057a1.172 1.172 0 00-.462-.003c-.504.094-1.097-.168-1.534-.68-.21-.247-.44-.584-.509-.749-.15-.36-.375-.391-.523-.072-.143.308-.135.346.084.377.167.024.188.07.173.398-.02.428-.13.587-.303.443-.16-.133-.24-.028-.133.174.066.122.153.156.334.13.135-.02.245-.004.245.036 0 .13-.232.165-.54.08-.27-.075-.314-.064-.401.098-.097.182-.098.182-.173-.042-.06-.18-.016-.35.225-.865.165-.352.3-.731.3-.843 0-.113.08-.26.176-.328.143-.1.166-.175.119-.39-.04-.178-.097-.25-.175-.221-.08.03-.145-.066-.21-.31a31.205 31.205 0 00-.205-.733c-.371-1.254-.562-2.918-.389-3.387.145-.392.219-.125.191.688-.031.913.082 1.459.286 1.38.072-.027.14.018.17.11.026.086.127.312.223.502.101.199.156.424.129.529-.074.282.086.742.274.792.092.024.2.134.243.244.106.279.33.455.44.345.059-.059.042-.237-.052-.56-.075-.26-.115-.544-.088-.629.027-.085-.008-.317-.079-.516-.172-.488-.16-.87.034-1.11.19-.235.316-.167.176.096-.074.139-.074.282.001.597.055.227.135.436.178.462.043.026.07.017.06-.021-.008-.039.026-.164.076-.28.051-.116.18-.437.289-.714.108-.277.263-.572.346-.656.083-.084.131-.183.108-.221-.023-.038.051-.157.165-.264.115-.108.208-.228.208-.268 0-.134-.344.11-.434.308-.089.195-.472.43-.559.344-.04-.04.162-.237 1.204-1.164.185-.164.307-.328.271-.364-.1-.1-.794.272-.95.51-.186.284-.563.468-.747.365-.19-.107-.394-.02-.332.142.027.07.011.13-.036.13-.176 0-.44.718-.417 1.134.014.265-.015.418-.084.442-.078.027-.105-.118-.105-.558 0-.503.04-.673.263-1.097.287-.548.44-.662.633-.47.183.184.217.17.696-.294.239-.232.49-.421.558-.421.068 0 .124-.038.124-.084 0-.052-.376-.085-.959-.085-.749 0-.98.028-1.063.127-.158.19-.226.153-.234-.128-.004-.14.026-.234.066-.21.04.026.096.007.126-.04.03-.049.422-.086.91-.087.865 0 1.24-.083.929-.203-.147-.057-.147-.066.014-.187.153-.116.107-.122-.505-.068-1.047.093-1.766.31-2.054.618-.135.145-.266.263-.292.263-.025 0 .015-.165.09-.366.123-.334.19-.391.774-.666a7.85 7.85 0 01.992-.394c1.056-.28 2.11-.701 2.562-1.023.289-.206.273-.313-.023-.154-.108.058-.442.157-.742.22s-.63.17-.734.238a.831.831 0 01-.38.124c-.17 0-.191-.039-.178-.316a7.65 7.65 0 01.02-.347c.004-.017.106.035.228.114.15.098.24.116.277.054.052-.083.283-.224 1.119-.681.171-.094.38-.27.463-.392.083-.122.243-.312.356-.424.145-.144.178-.228.113-.293-.064-.064-.166-.01-.352.185-.395.413-.89.676-1.337.71-.152.01-.3.044-.33.073-.029.03-.138.053-.242.053-.105 0-.207.048-.227.106-.021.058-.071.074-.112.036-.091-.086.292-.39.496-.392.082-.002.171-.06.198-.128.027-.07.263-.24.524-.38.262-.14.582-.386.71-.548.286-.357.228-.374-.18-.052-.17.133-.392.267-.495.3-.103.032-.34.185-.526.34-.187.156-.53.347-.763.425-.247.082-.48.225-.558.343-.206.316-.871.226-.871-.116 0-.19.658-1.196.786-1.2.12-.005.477-.744.477-.99 0-.194.13-.304.363-.309.084-.002.216-.114.295-.25.078-.136.192-.309.252-.384.235-.29.527-.843.447-.843-.046 0-.219.08-.384.177-.229.135-.3.232-.3.41 0 .258-.252.547-.315.36-.019-.057-.074-.105-.122-.105-.11 0-.825.74-.825.854 0 .047-.12.258-.265.47-.155.224-.263.485-.259.624.004.131-.028.26-.071.287-.044.027-.079.121-.079.21 0 .088-.076.2-.168.25a.349.349 0 00-.169.294c0 .112-.047.233-.105.27-.107.069-.243.282-.474.741-.07.14-.176.303-.237.364-.151.153-.138.355.031.479.124.09.127.137.03.37-.06.147-.179.304-.263.35-.14.074-.145.06-.062-.179.064-.184.064-.286 0-.35-.063-.063-.105-.019-.144.154-.03.134-.144.433-.252.665a5.006 5.006 0 00-.302 1.01c-.147.815-.123 2.87.043 3.757.137.73.18.98.264 1.507l.046.295-.186-.337c-.255-.463-.49-1.391-.543-2.148-.024-.347-.062-.75-.084-.894l-.039-.262-.3.136c-.266.12-.297.166-.263.389a3.59 3.59 0 01-.017.726l-.055.475.24-.038.24-.038-.135.263c-.075.144-.188.282-.25.306-.064.025-.138.136-.166.249-.028.112-.09.204-.137.204-.156 0-.186-.257-.048-.41.169-.186.173-.297.015-.428-.066-.055-.1-.155-.075-.22.025-.067.009-.12-.037-.12s-.11.169-.14.376c-.059.387-.206.595-.229.323-.029-.337.033-.57.229-.858.113-.166.205-.409.205-.54 0-.226-.029-.208-.623.378-.788.779-.964 1.275-.685 1.942.186.445.527.806.98 1.035.51.258.75.269.75.032 0-.141.035-.163.189-.116.262.08.25.08.473.003.159-.053.242-.022.404.153l.204.22-.23.087-.23.088.259.158c.142.086.275.205.294.263.066.196.236-.015.236-.291 0-.16.088-.393.21-.559.117-.157.211-.335.211-.395s.036-.11.08-.11c.132 0 .037.61-.111.718-.076.055-.137.193-.137.306 0 .113-.042.247-.093.298-.056.056-.066.17-.025.29.037.11.06.228.05.265-.01.037.112.122.271.188.4.167.434.264.144.414-.136.07-.265.176-.287.235-.031.085-.062.086-.15.003-.09-.085-.076-.14.075-.301.203-.216.169-.31-.112-.31-.216 0-.504.285-.422.417.03.05.024.081-.015.069-.069-.023-.475.282-1.128.848-.279.241-.313.307-.236.451.117.219-.051.435-.183.235-.07-.107-.107-.096-.249.073-.278.332-.184.826.127.664.022-.011.1.064.173.169.073.104.206.19.296.19.282 0 .204.327-.109.459-.262.11-.282.104-.503-.143-.26-.292-.265-.286-.399.483-.096.552-.462 1.332-.864 1.84.543.044 4.235.463 4.512-.087zm-3.232-.112c.09 0 .154-.589.069-.641-.098-.06-.084-.37.016-.37.08 0 .1.056.118.338.012.179.422.205.739.047.146-.073.287-.11.315-.083.093.095-.349.373-.592.373-.16 0-.243.043-.243.126 0 .142.214.172.296.04.067-.108.21-.024.21.124 0 .062-.105.138-.232.17zm2.109-.147c.003-.175.227-.493.297-.423.05.05-.187.57-.26.57-.022 0-.039-.066-.037-.147zm.334-.063c0-.07.057-.126.126-.126.22 0 .149.166-.105.246-.011.003-.02-.05-.02-.12zm-1.798-1.35c.026-.068.096-.124.156-.124s.133-.065.164-.145c.048-.124.067-.127.134-.02.118.185.098.25-.079.25-.087 0-.182.059-.21.131-.027.073-.086.11-.131.082-.045-.028-.06-.106-.034-.174zm3.398-2.304c0-.107.238-.185.293-.097.025.04-.003.092-.06.116-.168.067-.233.062-.233-.02zm-.337-2.835c0-.073.039-.108.086-.079.047.03.064.088.037.132-.072.116-.123.095-.123-.053zM6.791 19.6c-.027-.044-.01-.103.037-.132.047-.029.086.007.086.079 0 .148-.05.17-.123.053zm-2.099-.238a1.968 1.968 0 00-.339-.436.616.616 0 01-.167-.715c.083-.217.201-.152.201.113 0 .135.029.258.063.273.035.016.123.12.195.23.143.222.74.42 1.28.426.173.002.315.04.315.084 0 .135-.602.205-.876.101-.209-.079-.267-.073-.325.03-.105.186-.212.154-.347-.106zm3.5-1.985c-.029-.244.103-.309.186-.092.084.22.058.388-.054.351-.058-.019-.117-.135-.132-.26zm-1.447-.272c0-.073.038-.108.084-.08.047.029.085.088.085.132 0 .043-.038.079-.085.079-.046 0-.084-.06-.084-.131zm.811-1.814c.031-.795.063-1.077.119-1.043.033.02.066.345.073.72.01.521-.013.675-.095.646-.062-.02-.103-.157-.097-.323zm1.294-.326c.052-.193.133-.338.18-.322.11.036.102.085-.07.444-.18.38-.23.324-.11-.122zm-2.017-2.061c-.082-.1-.069-.12.074-.109.179.014.22.074.119.174-.075.075-.077.074-.193-.065zm1.482-1.184c.051-.134.199-.175.199-.056 0 .089-.092.182-.18.182-.037 0-.046-.057-.02-.126zm-1.1-.136c.071-.116.288-.088.288.038a.274.274 0 01-.055.167c-.076.077-.291-.112-.234-.205zm1.846-.075c.029-.046.109-.084.178-.084.07 0 .103.038.075.084-.029.047-.11.085-.179.085-.07 0-.103-.038-.074-.085zm-1.433-.25c.16-.178.38-.23.38-.09 0 .045-.083.159-.184.253-.244.227-.418.082-.196-.163zm.488-.35a.22.22 0 01-.049-.214c.039-.1.072-.096.202.022.086.078.136.174.111.214-.06.1-.15.092-.264-.021zm.867-2.927c-.026-.041.029-.094.121-.118.109-.029.168-.003.168.074 0 .13-.216.163-.29.044zm17.503 21.69a7.46 7.46 0 00.262-.983c.067-.439.363-1.18.471-1.18.04 0 .077.124.08.274.003.15.037.35.075.443.14.343.259-.272.236-1.235-.02-.845-.007-.935.152-1.065.28-.229.668-.776.954-1.344.28-.56.836-1.465.941-1.536.08-.054-.003-.505-.093-.505-.037 0-.08.04-.097.09-.045.132-.321-.003-.321-.158 0-.11-.019-.114-.106-.022-.084.089-.084.119 0 .15.166.06.123.193-.063.193-.092 0-.168.038-.168.084 0 .119.316.105.356-.015.02-.06.095-.075.188-.04.15.058.15.064-.005.181a.637.637 0 01-.303.124c-.276.005-.247.171.033.183.23.009.242.018.068.05a.84.84 0 00-.315.124.272.272 0 01-.245.032c-.127-.05-.125-.065.02-.175.14-.106.143-.122.02-.124-.318-.007-.37.075-.35.56.013.357-.028.554-.167.797-.101.178-.213.323-.248.323-.104.002-.071-.295.07-.63.072-.174.125-.435.117-.58-.026-.49-.004-.557.192-.563.105-.003.266-.041.358-.084.121-.056.07-.065-.18-.03-.21.028-.372.011-.405-.043-.032-.051.01-.091.096-.093.146-.002.146-.006.002-.09-.265-.154-.325-.044-.367.682-.045.763-.141 1.088-.244.82-.031-.08-.028-.289.007-.462.086-.427.096-1.115.016-1.115-.108 0-.218.347-.307.968-.076.532-.064.65.123 1.218.114.346.207.68.207.742 0 .062-.134.437-.299.834a5.987 5.987 0 01-.963 1.603.367.367 0 00-.086.188c0 .12-.77 1.184-.857 1.184-.136 0-.065-.469.19-1.26.407-1.26.472-1.502.668-2.47.193-.955.18-1.186-.064-1.139-.12.023-.148.122-.154.533a7.921 7.921 0 01-.069.909c-.077.503-.273.51-.452.016-.147-.405-.035-.953.254-1.242.132-.132.175-.266.158-.493-.02-.29-.001-.318.282-.412.167-.055.358-.08.425-.054.12.046.205-.094.498-.82.073-.18.132-.449.132-.599 0-.176.09-.385.253-.59.139-.176.252-.348.252-.385 0-.036.1-.184.221-.329.247-.293.223-.384-.08-.308-.153.038-.254.174-.397.536-.24.605-.226.59-.374.395-.116-.154-.122-.149-.125.095-.002.14-.047.3-.1.354-.074.074-.072.129.01.227.06.072.072.13.028.13-.043 0-.17.2-.28.442-.136.296-.213.392-.233.29-.017-.082.022-.234.087-.336.175-.273.238-.48.147-.48-.044 0-.184.161-.31.358l-.253.393c-.014.02-.048.012-.076-.016-.07-.07.131-.65.226-.65.125 0 .09-.223-.054-.342-.115-.096-.125-.081-.075.116.036.143.022.225-.037.225a.092.092 0 00-.093.09c0 .157-.235.333-.373.28-.074-.029-.132-.008-.132.047 0 .054-.033.078-.074.053-.127-.079-.18-.554-.08-.715a.382.382 0 00.041-.296c-.045-.117-.122-.133-.428-.087-.314.047-.396.029-.522-.119-.098-.114-.211-.159-.329-.13-.215.055-.419-.156-.343-.353.046-.12.176-.132.999-.094.52.023.996.056 1.058.073.062.017.167-.05.234-.147.121-.177.116-.178-.87-.232-1.38-.074-2.385.04-2.97.34-.4.205-.468.275-.49.507-.044.457.094.606.553.596.423-.009.815.15 1.236.501.275.23.629.217.905-.033.143-.13.174-.128.452.022.315.17.337.22.412.974.026.263.07.537.098.61.037.098 0 .134-.136.134-.145 0-.177-.037-.144-.165.063-.24-.1-.333-.685-.394-.492-.052-.518-.045-.518.129 0 .277-.22.306-.681.09-.333-.156-.437-.174-.52-.09-.082.084-.065.135.083.247.622.472.584.423.427.547-.096.075-.116.142-.061.197.185.186.833 1.579.756 1.627-.045.028-.074.157-.064.288.011.142-.032.262-.108.3-.07.033-.205.101-.3.15-.21.107-.584.047-.718-.114a.37.37 0 00-.25-.117c-.084 0-.449-.303-.81-.674-.48-.49-.717-.673-.872-.673-.141 0-.364-.144-.66-.426-.245-.234-.536-.46-.645-.502a.888.888 0 01-.35-.31 3.526 3.526 0 00-.373-.464 1.247 1.247 0 01-.282-.463 1.06 1.06 0 00-.191-.383c-.073-.08-.1-.147-.06-.147.041 0-.004-.055-.1-.122-.233-.164-.536-1.093-.496-1.52l.032-.337-.19.236c-.168.208-.204.22-.299.106a.275.275 0 01-.043-.278.502.502 0 00.052-.211c-.008-.035.024-.064.07-.064.047 0 .085-.093.085-.207 0-.114.083-.284.184-.379.102-.094.149-.174.105-.177-.043-.004-.003-.039.09-.079.144-.062.147-.073.02-.078-.08-.003-.15-.053-.154-.111-.045-.632-.032-1.314.027-1.434.055-.113.01-.213-.184-.407-.141-.14-.257-.286-.257-.321 0-.122-.311-.425-.373-.363-.034.034-.049.005-.034-.065.02-.084-.05-.135-.208-.153-.25-.029-.51.12-.431.247.025.041-.004.075-.064.076-.088.001-.087.016.004.074.088.056.09.08.01.108-.058.019-.11.163-.117.32-.006.156-.053.298-.103.315-.096.032-.09-.245.01-.495.037-.095.006-.153-.098-.18-.147-.038-.147-.04-.001-.05.202-.012.095-.178-.115-.178-.09 0-.164.056-.164.124 0 .144-.303.328-.42.255-.048-.029-.052-.109-.01-.193l.24-.48c.168-.335.17-.597.006-.496-.055.034-.044.08.028.126.09.057.085.073-.024.074-.18.002-.24-.17-.24-.68 0-.227-.039-.418-.085-.424a12.838 12.838 0 01-.161-.021.282.282 0 01-.138-.07c-.055-.057.118-.151.497-.272.145-.046.142-.061-.042-.218l-.198-.169.475.026c.62.033.75-.125.47-.564-.202-.317-.31-.355-.587-.206a1.595 1.595 0 01-.51.12c-.482.036-.56.155-.286.44.294.307.286.355-.054.355a.594.594 0 01-.435-.169c-.083-.092-.18-.168-.215-.168-.106 0 .02.348.143.395.063.024.115.076.115.115 0 .074-.399.5-.467.5-.021 0-.04-.142-.04-.315-.002-.497-.08-.56-.485-.398-.408.163-.546.453-.44.923.076.338.168.487.168.273 0-.214.133-.242.404-.087.217.124.24.17.165.332-.073.16-.043.233.2.483.156.162.35.372.431.468.163.192.4.233.4.069 0-.058-.133-.272-.295-.475-.162-.204-.293-.393-.292-.421.006-.202.233-.888.3-.91.219-.073.378.214.5.9.127.72.122.773-.138 1.284-.107.21-.092.366.046.48.067.056.145.208.174.339.028.13.127.306.22.39.297.27.67 1.325.7 1.984.016.356-.406 1.901-.563 2.058-.03.03-.118.03-.196 0-.132-.05-.132-.064.004-.215.08-.088.127-.193.103-.232-.024-.039.024-.278.107-.531.125-.38.141-.608.094-1.284-.068-.96-.145-1.093-.455-.784-.119.12-.292.217-.384.217-.207 0-.312.152-.19.274.065.065.05.123-.053.203-.126.097-.102.107.185.074.35-.039.677.077.594.21-.065.106-.524.084-1.323-.062-.359-.066-.775-.108-.926-.094l-.275.027-.004.884c-.005.914-.019 1.01-.19 1.32-.055.102-.101.291-.102.422 0 .13-.04.294-.086.363-.073.11-.102.104-.213-.042a.946.946 0 01-.158-.337 163.11 163.11 0 00-.126-.696c-.053-.291-.08-.557-.058-.592.077-.124.08-.986.004-1.028-.043-.023-.135.243-.206.59-.106.526-.111.747-.028 1.322.055.38.168.805.25.946.148.249.147.26-.013.38-.214.163-.289.134-.456-.178l-.139-.258-.231.2c-.128.109-.283.199-.345.199-.146 0-.234.233-.146.39.057.103.102.095.287-.05.285-.225.332-.217.267.043-.05.2-.038.21.188.16.475-.106.538-.136.624-.297.1-.188.376-.227.306-.042-.232.602-.847 1.181-1.537 1.445-.204.078-.372.175-.372.215 0 .04-.13.072-.289.072-.291 0-.553.176-.553.371 0 .221.118.207.412-.051.256-.225.308-.244.331-.12-3.548 2.55 2.34 1.267 2.622.916.259-.326.593-.48.593-.273 0 .146.243.09.332-.076.047-.088.11-.375.142-.638l.056-.48.195.24c.228.278.244.435.083.822-.087.207-.189.299-.38.34-3.247 1.595.224 1.818.88-.4.093-.372-.113-1.131-.36-1.326a2.484 2.484 0 01-.42-.465c-.296-.435-.368-.37-.308.281.05.534.039.59-.165.821-.12.137-.22.204-.221.149-.002-.056.028-.12.067-.143.038-.024.074-.255.081-.514.01-.402-.009-.467-.132-.446-.096.016-.154-.04-.172-.166-.028-.2.11-.263.182-.084.023.058.045-.017.049-.166.004-.149-.107-.582-.246-.963-.295-.808-.293-.799-.117-.653.115.096.153.088.256-.052.197-.27.224-.529.088-.819-.178-.376-.31-1.148-.209-1.21.044-.028.27.052.5.178.48.261.936.248 1.374-.04.183-.12.276-.138.358-.07.083.069.086.12.014.206-.052.064-.132.116-.177.116-.045 0-.173.072-.285.16-.153.12-.288.149-.54.115-.4-.054-.407-.023-.174.747.312 1.028.445 1.69.394 1.948-.042.21-.008.307.174.497.305.297.336.286.858.604 1.2 1.811 7.077 3.497 7.413 2.5-.064-.246.335-.196.606.075.143.143.36.284.484.314.124.03.496.18.827.334l.602.28c.208.542 1.57.715 1.484.314zm-.288-1.145c0-.05.043-.09.095-.09zm-1.684-.007c.11-.07.108-.082-.01-.083a.346.346 0 01-.23-.113c-.073-.087.015-.172.41-.394.277-.156.504-.314.504-.352 0-.038.038-.068.084-.068.171 0 .076.327-.173.594-.198.212-.232.292-.147.353.076.054.052.065-.08.036-.104-.022-.21-.007-.237.035a.187.187 0 01-.147.075c-.06 0-.05-.034.026-.083zm-14.2-1.38a3.931 3.931 0 001.009-1.044c.215-.323.39-.642.39-.708 0-.066.056-.193.124-.283.12-.157.124-.155.127.057.008.678-.718 1.721-1.64 2.354-1.157.753-.615.075-.01-.375zm1.063.454c0-.046.04-.084.09-.084.048 0 .065.038.036.084-.028.046-.069.084-.089.084-.02 0-.037-.038-.037-.084zm3.368-2.569c-.06-.119.53-.302.603-.187.105.167-.022.29-.291.28-.148-.005-.288-.046-.312-.093zm-.252-.626c0-.273.134-.41.27-.273.12.12.008.52-.146.52-.081 0-.124-.085-.124-.247zm13.979-.426c0-.047.036-.084.08-.084.043 0 .102.038.13.084.03.046-.007.084-.079.084s-.131-.038-.131-.084zm.042-.253c-.029-.046.005-.084.074-.084.07 0 .15.038.179.084.028.047-.005.084-.075.084-.07 0-.15-.037-.178-.084zm-10.846-.113a6.82 6.82 0 00-.692-.568c-.697-.51-1.304-1.025-1.304-1.105 0-.094.323-.083.445.015.727.58 1.869 1.63 1.898 1.747.043.174-.146.125-.347-.089zm-3.007-.14c0-.046.04-.084.09-.084.048 0 .065.038.036.085-.028.046-.068.084-.089.084-.02 0-.037-.038-.037-.084zm10.906-.336c-.029-.047-.012-.085.037-.085s.089.038.089.085c0 .046-.017.084-.037.084-.02 0-.06-.038-.09-.084zm-2.55-1.53c-.137-.138.027-.323.286-.323.215 0 .264.156.1.32-.128.128-.26.129-.386.002zm-6.44-.62c-.005-.045.054-.094.132-.11.1-.018.126.013.089.11-.055.142-.206.142-.221 0zm-.653-.124c0-.046.04-.084.09-.084.049 0 .065.038.037.084-.029.046-.07.084-.09.084-.02 0-.037-.038-.037-.084zm.966-.332c-.072.117-.208-.058-.2-.258.003-.083.029-.068.076.043l.073.168.016-.168c.009-.093.014-.19.011-.214-.002-.026.068-.052.155-.058.178-.013.336.327.177.38-.053.018-.07.076-.037.13.036.06.006.056-.076-.01-.1-.082-.15-.085-.195-.013zm-.797-.847c0-.046.059-.084.131-.084.072 0 .108.038.08.084-.03.046-.088.084-.132.084-.044 0-.08-.038-.08-.084zm-.421-.163c0-.227.159-.303.312-.15.154.154.078.313-.149.313-.106 0-.163-.058-.163-.163zm-.41-.756c-.112-.376-.125-.765-.026-.765.038 0 .17.154.294.343.177.27.206.378.138.506-.047.089-.064.161-.036.161.027 0 .027.037 0 .08-.094.153-.273-.005-.37-.325zm-.517-4.218a.084.084 0 01.168 0 .084.084 0 01-.083.084.084.084 0 01-.085-.084zm29.559 14.69c0-.108-.602-.291-.729-.22-.1.056-.04.097.251.17.438.11.478.115.478.05zm-1.025-.34c-.093-.093-.197-.116-.334-.072-.19.06-.192.066-.03.129.092.036.242.068.333.072.152.005.154-.005.03-.13zm-.744-.118a1.622 1.622 0 00-.42-.066c-.19.001-.186.008.041.066.14.035.329.065.421.066.132.001.123-.013-.042-.066zm-.81-.208c-.029-.075-.089-.124-.133-.11-.126.043-.09.189.054.219.09.018.115-.015.079-.11zm-33.172-.948c.249-.367.3-.95.083-.95-.147 0-.38.48-.315.65.024.06-.018.203-.093.317-.289.508.175.2.325-.017zm25.565-1.483c.813-.74 1.21-1.034 1.765-1.31.806-.401 1.722-1.019 1.7-1.146-.009-.046-.203-.088-.433-.093-.507-.01-.835-.207-.902-.542-.027-.137-.08-.25-.115-.25-.037 0-.196.18-.355.4-.158.22-.477.61-.708.864a9.624 9.624 0 00-.679.842 5.852 5.852 0 01-.667.769c-.91.866-1.117 1.12-1.03 1.275.044.08.147.146.228.146.08 0 .619-.43 1.196-.955zm1.933-1.995c0-.109.24-.207.317-.13.031.031.001.092-.067.136-.163.103-.25.1-.25-.007zM8.598 25.994c0-.174-.203-.232-.295-.084-.08.13-.295.1-.295-.042 0-.159-.09-.16-.3-.007-.157.116-.154.124.074.21.13.05.368.091.527.091.233 0 .289-.032.289-.168zm1.179-.632c0-.07-.052-.126-.116-.126s-.163.057-.221.126c-.089.107-.07.127.116.127.14 0 .22-.047.22-.127zm21.74-.29c.108-.183.548-.691.976-1.13.429-.44.779-.864.779-.945a.55.55 0 01.14-.302c.188-.208.12-.253-.432-.283-.456-.026-.472-.019-.584.24-.063.148-.32.465-.574.706-.364.347-.505.56-.68 1.038-.208.561-.214.615-.09.805.074.112.164.203.2.203.036 0 .155-.15.264-.332zm.24-1.183c.049-.093.108-.169.131-.169.024 0 .002.076-.048.169-.05.092-.109.168-.132.168-.023 0-.001-.076.048-.168zm-22.687.32c-.071-.359-.136-.412-.41-.34-.331.09-.303.205.105.422l.36.192zm1.128.059c.085-.103.081-.127-.023-.127-.07 0-.15.057-.176.127-.027.07-.016.126.023.126s.118-.057.176-.126zm-.197-.4c.287-.321.534-.895.534-1.24 0-.181.038-.353.084-.381.153-.095.087-.452-.127-.683-.204-.22-.216-.223-.379-.075-.221.2-.212.28.043.344.23.058.288.203.082.203-.259 0-.354.598-.166 1.041.06.139.038.15-.185.102-.175-.039-.284-.017-.357.07-.122.148-.053.303.136.303.102 0 .12.058.081.252-.06.301.023.322.254.064zm18.72-1.195c.075-.091.076-.165.004-.3-.082-.153-.117-.163-.23-.069-.121.1-.116.114.047.138.253.037.23.183-.028.183-.116 0-.21.038-.21.085 0 .127.302.1.416-.037zm-.839-.132c.103-.066.092-.082-.058-.083-.101 0-.208.037-.236.083-.067.107.129.107.294 0zm1.937-.281c0-.122.03-.13.176-.052.131.07.238.07.415-.005.475-.196.642-.588.251-.588-.087 0-.179-.034-.204-.075-.055-.089-.722.226-.722.341 0 .044-.038.057-.084.028-.126-.078-.096.146.045.332.11.146.123.148.123.018zm-.337.05c0-.047-.056-.132-.126-.19-.07-.058-.126-.067-.126-.02 0 .046.057.13.126.189.07.058.126.067.126.02zm-.511-.093c.008-.141-.26-.602-.35-.602-.064 0 .092.334.196.421a.51.51 0 01.099.168c.035.092.05.096.055.013zm-.792-.016c.054-.087-.098-.336-.202-.33-.029.001-.12.095-.204.21l-.151.208h.252c.138 0 .276-.04.305-.088zm-1.644.003a.084.084 0 00-.084-.084.084.084 0 00-.084.084c0 .047.038.085.084.085a.084.084 0 00.084-.085zm-13.558-.11c0-.158-.137-.26-.204-.153-.026.042.01.123.079.18.101.085.125.08.125-.028zm14.316-1.116c0-.072-.038-.107-.084-.079-.047.029-.084.088-.084.131 0 .044.037.08.084.08.046 0 .084-.06.084-.132zm-.758-.121c.108-.07.105-.082-.021-.083-.081 0-.147.037-.147.083 0 .103.01.103.168 0zm-15.058.027c-.06-.025-.134-.022-.162.006-.027.028.022.048.111.045.098-.005.118-.024.05-.051zm19.48-.111c.11-.048.125-.074.041-.077a.52.52 0 00-.252.077c-.154.1-.021.1.21 0zM13.853 20.7c.067-.108-.555-.517-.786-.517-.091 0-.189.038-.217.085-.106.17-.3.078-.35-.167-.027-.138-.102-.294-.166-.347-.064-.053-.116-.143-.116-.2 0-.056-.076-.171-.168-.255-.165-.15-.169-.147-.169.103 0 .14.055.3.122.356.088.074.108.21.074.503-.04.334-.023.411.102.46.097.036.218-.008.346-.128.18-.17.209-.174.345-.052.186.167.906.283.983.159zm14.955-.143c0-.072-.038-.108-.084-.079-.047.029-.085.088-.085.131 0 .044.038.08.085.08.046 0 .084-.06.084-.132zm-11.185-.01c-.06-.024-.133-.021-.161.007-.028.028.022.047.11.044.099-.004.119-.024.051-.051zm-6.922-.494c-.001-.587-.081-.86-.226-.77-.102.064.01 1.139.133 1.26.07.07.094-.058.093-.49zM14.514 20c.412-.463.294-.8-.31-.882a2.284 2.284 0 01-.802-.313c-.51-.33-1.221-1.247-1.157-1.49.025-.096-.009-.304-.075-.462-.159-.381-.152-1.262.015-1.75.158-.465.242-.536.42-.358.144.144.669.18.749.051.027-.044.114-.06.194-.034.11.035.1.009-.036-.109-.17-.147-.336-.5-.299-.64.01-.035-.058-.017-.151.04-.138.087-.209.081-.398-.034-.309-.187-.332-.304-.074-.369.282-.07.96.256 1.08.522.096.208.35.268.45.106.031-.051.005-.127-.059-.167-.078-.05-.01-.074.206-.075.292-.001.392-.07 1.074-.752.755-.753.85-.916.637-1.093-.088-.072-.14-.066-.217.027-.056.068-.162.1-.236.071-.084-.032-.113-.017-.077.04.076.124-1.07.695-1.393.695-.351 0-.225-.14.384-.427.9-.424 1.023-.517 1.018-.774-.002-.129.022-.276.054-.327.073-.118.245-.017.245.144 0 .066.038.121.084.121.046 0 .084-.068.084-.152 0-.084.056-.226.124-.316a.628.628 0 00.126-.276c.002-.062.078-.176.169-.253.164-.139.286-.543.192-.637-.058-.058-.45.228-1.2.878-.581.502-1.442 1.093-1.593 1.093-.05 0-.091.038-.091.084 0 .047.038.084.084.084.153 0 .082.208-.12.355-.192.14-.2.138-.249-.042-.074-.275-.065-.313.071-.313.072 0 .105-.05.079-.118-.028-.072.024-.141.129-.174.18-.058.227-.17.104-.246-.086-.053-.666.536-.995 1.01-.33.476-1.117 1.4-1.306 1.533-.085.06-.155.144-.155.185 0 .042-.091.174-.203.294-.11.12-.304.434-.43.698-.192.408-.221.565-.194 1.047.03.534.16.846.294.711.033-.033.081-.375.107-.76.027-.404.096-.76.162-.84a.488.488 0 00.072-.362c-.03-.158.011-.276.14-.4.101-.098.246-.277.323-.398.076-.121.217-.24.313-.266.195-.05.225.023.071.176-.113.113-.134.303-.187 1.658-.042 1.083.063 1.565.476 2.184.152.229.375.583.495.788.12.205.357.52.527.699.169.18.307.361.307.403 0 .102.216.18.491.175.143-.002.31-.099.457-.263zm-.61-6.433c0-.072.038-.108.085-.079.047.03.064.088.037.132-.072.116-.123.095-.123-.053zm.252-1.306c0-.043.057-.079.126-.079.13 0 .168.1.073.194-.068.068-.2-.008-.2-.115zm.379-.247c.028-.047.116-.084.194-.083.123.001.125.012.016.083-.165.106-.276.106-.21 0zm4.547 7.916c.029-.047-.009-.085-.084-.085-.075 0-.113.038-.084.085.028.046.066.084.084.084.018 0 .056-.038.084-.084zm-1.202-.014c.061-.181-.028-.407-.16-.407-.088 0-.107.053-.066.19.078.255.18.354.226.217zm8.191-.453c.231-.11.46-.257.51-.325.05-.068.191-.149.314-.18.193-.048.24-.018.353.227l.13.282-.04-.33c-.054-.45-.143-.518-.472-.354-.34.17-.347.17-.552-.02-.31-.29-.473-.327-1.142-.26-.356.035-.726.09-.821.12-.128.04-.236-.015-.418-.214-.26-.285-.43-.272-.428.03.004.384.253.563.863.62.493.046.604.09.857.335.16.156.321.28.359.276.037-.003.256-.097.487-.207zm-17.06-.144c.005-.174-.027-.316-.07-.316-.044 0-.103-.075-.133-.168-.029-.093-.09-.168-.134-.168-.044 0-.017.122.06.273.078.15.17.368.206.484.057.186.065.173.072-.105zm8.744-.386c-.009-.119-.042-.152-.097-.097-.055.055-.05.116.014.18.073.073.093.052.083-.083zm-7.091-.103c.03-.049.028-.19-.005-.316a3.604 3.604 0 01-.081-.563c-.012-.185-.114-.6-.227-.92-.165-.469-.242-.585-.39-.596-.159-.012-.183.028-.177.288.003.166.025.254.049.196.103-.257.197.04.197.63 0 .533.035.7.214 1.005.216.37.32.438.42.276zm-.79-1.178c.033-.487-.046-.704-.182-.501-.112.166-.069.862.055.903.063.02.108-.123.127-.402zm7.76-.134c.116-.115.056-.363-.11-.451-.1-.054-.168-.058-.168-.01 0 .044-.12.107-.267.14-.243.052-.252.066-.105.15.089.05.2.1.246.108.046.01.143.04.215.07.071.028.157.026.189-.007zm-.693-.65c-.129-.14-.162-.222-.091-.222.062 0 .094-.02.07-.043-.023-.023-.165.019-.315.094-.202.1-.299.112-.368.043-.134-.135-.313-.116-.313.032 0 .07.029.129.064.132l.357.034c.163.015.409.055.548.09l.252.062zm12.036-.723c0-.141-.038-.257-.084-.257-.046 0-.084.092-.084.205 0 .113.038.23.084.258.05.03.084-.055.084-.206zm-12.93.17c.058-.094-.075-.194-.153-.116-.08.08-.065.194.025.194.044 0 .101-.035.128-.078zm12.246-.597c.2-.22.225-.304.184-.608-.058-.435-.392-.684-.677-.506a.836.836 0 01-.375.105c-.113 0-.23.038-.258.084-.029.046-.012.084.037.084s.089.038.089.084c0 .047-.057.085-.126.085-.07 0-.127-.061-.127-.136 0-.105-.05-.123-.231-.078-.385.095-.42.2-.146.424.381.312.534.335.818.125.205-.152.267-.165.326-.072.114.18.088.41-.05.464-.202.077-.147.199.088.199.132 0 .305-.098.448-.254zm-18.218.08c.03-.05.038-.108.015-.13-.022-.022-.062.018-.09.09-.057.148-.008.174.075.04zm5.551-.31c.026-.067.024-.157-.004-.202-.061-.099-.287.073-.287.219 0 .142.235.128.291-.018zm8.046-.151c0-.025-.074-.19-.165-.369-.197-.387-.702-.714-.99-.641-.111.028-.326-.01-.486-.087-.337-.16-.636-.117-1.281.182-.241.112-.543.243-.671.292-.187.071-.209.104-.11.167a.85.85 0 00.367.079c.134 0 .286.059.337.13.052.07.242.152.423.181.306.05.325.041.281-.128-.044-.17-.025-.178.303-.128.192.03.423.091.513.138.13.067.2.04.354-.138.251-.293.363-.28.644.073.201.251.48.396.48.249zm5.46-.797c0-.116-.019-.163-.042-.105a.325.325 0 000 .21c.023.058.042.011.042-.105zm-5.785-.255c-.11-.091-.257-.166-.327-.166-.087 0-.059.055.085.169.28.22.507.217.242-.003zm-7.928-.376c.108-.116.174-.233.147-.26-.076-.077-.568.237-.568.362 0 .175.208.124.42-.102zm11.92-.132c.183-.096.541-.252.796-.347.589-.22.67-.298.388-.369-.511-.128-1.82.43-1.82.777 0 .163.252.139.635-.061zm-2.672-.35c-.049-.341-1.404-.933-1.724-.754-.12.068-.077.116.271.302.229.122.567.314.753.427.444.27.737.28.7.025zm-8.691-.026c.077-.117.116-.237.088-.265-.052-.052-.384.3-.39.415-.006.138.17.05.302-.15zm-.177-3.598c1.11-1.116 2.23-2.448 2.23-2.65 0-.157-.12-.132-.294.06-.084.093-.202.17-.262.17s-.242.18-.403.4c-.743 1.01-.84 1.074-.762.505.047-.338.027-.316-.361.4a16.686 16.686 0 01-.794 1.305c-.44.63-.607.926-.523.926.033 0 .558-.502 1.169-1.116zm-6.882-.059c.137-.136.35-.273.475-.305.124-.03.328-.184.453-.34.124-.157.266-.285.314-.285.122 0 .797-.699.797-.824 0-.128-.048-.128-.28-.004a.974.974 0 01-.442.083c-.315-.02-.479.146-.65.66-.07.209-.178.38-.24.38-.14 0-.326.224-.266.321.024.039-.03.058-.121.043-.21-.035-.443.156-.443.361 0 .223.116.197.403-.09zm1.146-1.497c.085-.085.156.043.086.157-.053.086-.073.086-.102 0-.02-.058-.012-.129.016-.157zm2.033-.028c.03-.05.038-.108.016-.13-.023-.022-.063.018-.09.09-.057.148-.009.174.074.04zm.235-.22a.232.232 0 00.056-.142c0-.053-.039-.048-.1.012-.054.055-.08.12-.055.143.024.024.068.019.1-.012zm-.575-.027c.028-.047.014-.085-.032-.085-.047 0-.108.038-.137.085-.028.046-.014.084.033.084.046 0 .107-.038.136-.084zm-1.221-.268c0-.073.057-.18.126-.238a.405.405 0 00.126-.274c0-.132-.048-.099-.215.148-.153.224-.19.344-.127.407.063.064.09.05.09-.043zm1.175-.443c.057-.07.088-.174.068-.234-.023-.068-.075-.035-.141.089-.124.231-.077.325.073.145zm15.92-.199c0-.13-.046-.281-.101-.337-.056-.055-.141-.222-.19-.371-.117-.36-.458-.553-.777-.44-.35.122-.305.326.078.358.252.02.316.06.316.195 0 .165.487.827.61.83.035 0 .064-.105.064-.235zM11.308 5.81c-.06-.024-.133-.021-.16.007-.029.028.02.047.11.044.098-.005.118-.024.05-.051zm12.926-.668c-.03-.181-.13-.381-.227-.455-.11-.082-.155-.183-.122-.27.067-.174-.131-.283-.666-.363-.33-.05-.436-.108-.547-.302-.075-.133-.185-.242-.243-.242-.058 0-.184-.09-.28-.201-.096-.11-.42-.305-.72-.432l-.544-.232-.209.197c-.115.108-.188.25-.163.316.025.066.003.172-.05.236-.078.094-.044.115.18.115.31 0 1.488.606 1.665.856.06.085.163.155.228.155.218 0 .51.178.592.36.05.111.217.221.429.282.191.055.434.146.539.202.186.1.19.094.138-.222zm-10.957-.098c.143-.126.398-.343.569-.481.458-.373.377-.43-.174-.122-.58.324-.905.617-.827.744.083.134.144.115.432-.141zm8.59-.533c.067-.109-.108-.24-.322-.242-.171-.002-.19.09-.046.234.127.127.292.13.368.008zm-.523-.37c.063-.162-.117-.163-.33-.002-.157.118-.155.123.06.126.122.002.244-.054.27-.124zm4.777-.197c-.045-.085-.284-.31-.53-.5-.359-.277-.604-.383-1.23-.534-.71-.171-.792-.176-.913-.055-.265.266.123.428.748.314.414-.076.937.091 1.202.385.176.193.661.545.753.545.03 0 .016-.07-.03-.155zm-11.394-.128c.59-.38.75-.555.6-.65-.177-.112-.2-.1-.3.169-.075.195-.153.252-.377.274-.22.02-.29.07-.31.216-.023.155-.065.18-.232.139-.113-.029-.205-.02-.205.02 0 .168.443.078.824-.168zm-.32-.387c.205-.13.06-.167-.167-.042-.122.068-.157.117-.084.118a.541.541 0 00.25-.076zm1.572-.641c.43-.208.683-.421.6-.505-.024-.024-.153.047-.286.159-.133.111-.413.28-.621.375-.209.095-.322.175-.253.177.07.003.322-.09.56-.206zm7.185.051c.068-.043.094-.108.058-.145-.1-.1-1.538-.507-2.455-.694a13.88 13.88 0 01-.886-.214c-.582-.169-1.837-.03-2.426.267-.426.216-.602.392-.496.498.025.025.298-.071.606-.214.321-.148.7-.26.887-.26.179 0 .352-.042.384-.093.077-.126 1.474-.018 1.93.148.186.068.63.211.99.32.358.107.746.257.86.332.236.154.37.168.548.055z"/>
    <g>
      <path d="M11.021 31.187l-.06.018q.203-.06.218.069.02.07-.157.221-.207.16-.492.583-.936 1.339-1.725 3.22-.22.536-.4 1.095l-.085.278-.086.311q-.033.153-.058.26l-.024.105.123-.068q.131-.082.31-.189l.367-.216q.178-.107.288-.182.131-.082.317-.202.075-.044.14-.085.114-.065.196-.122.093-.06.118-.09.125-.102.218-.084.09.007.154.076.064.07.078.154-.003.067-.026.14-.016.06-.061.094-.045.035-.103.063-.05.015-.108.01-.077 0-.397.147-.314.135-.745.359-.421.22-.819.445l-.113.066-.052.202q-.277 1.292-.362 2.484-.008.124-.012.224l-.009.124q-.016.17-.19.22-.05.015-.084.013-.023-.004-.065-.036-.204-.095-.154-.495.017-.17.088-.533.082-.365.178-.756.29-1.207.282-1.238l-.251.16q-.254.151-.618.378-.368.216-.732.442-.364.227-.615.387l-.206.126.004.054q-.004.023.003.087l.03.102q.068.465-.052 1.193-.192 1.014-.605 1.948-.41.945-.842 1.356-.084.09-.142.119-.055.037-.102.029-.023-.004-.033-.001l-.047-.009-.02.006q-.09-.007-.167-.084-.078-.077-.09-.195-.017-.06-.002-.12.016-.06.075-.198.093-.214.234-.717.144-.494.413-1.508.142-.537.249-.93.044-.19.067-.263.025-.106.048-.179l.02-.083-.12.08q-.111.075-.29.182-1.178.726-1.654.907-.514.204-.746-.027-.276-.305.145-1.099.545-.973 1.482-1.43.167-.07.37-.13.213-.061.365-.072.443-.029.738.117l.063.026q.023.005.03-.008.015-.027.06-.216.044-.189.094-.435.06-.248.102-.448.653-3.041.502-4.364-.01-.151-.075-.375l-.044-.152q-.018-.061-.037-.089l-.044-.075q-.201-.317-.563-.157-.56.272-1.158 1.062-.591.776-.962 1.742-.365.987-.348 1.654.006.098.02.149.025.048.063.103.067.08.076.187.02.105-.034.186-.029.053-.087.08-.058.028-.122.036-.067-.003-.135-.05-.069-.046-.11-.111-.222-.542.35-2.073.257-.67.602-1.308.35-.653.687-1.091.823-1.042 1.476-.878.45.145.595.841.135.733-.04 2.226-.068.604-.185 1.265-.117.662-.363 1.758-.01.08-.033.152-.035.22-.071.362-.026.14-.023.15.003.01.022.038.016.017.045.042.128.14.218.334.05.096.06.093.01-.003.113-.066.113-.066.271-.167.495-.308 1.075-.663.578-.365 1.065-.66.02-.006.038-.022.015-.026.03-.086l.048-.179q.007-.013.011-.036.386-1.488 1.021-2.873.587-1.249 1.454-2.48.21-.303.323-.445.12-.156.182-.207.07-.065.141-.085zm-6.247 7.775q-.007.013-.027.096-.013.07-.038.176l-.044.19-.01.08.048-.026q.048-.024.103-.062.065-.041.113-.066.045-.035.052-.048-.003-.01-.028-.058-.014-.051-.052-.106-.031-.068-.066-.113-.019-.028-.035-.045l-.016-.018zm-.952 1.09q.223-.141.371-.24.159-.1.166-.113.007-.013.036-.143.039-.132.079-.298.037-.176.066-.305l.039-.133q-.01-.03-.108-.068-.102-.047-.215-.059-.28-.051-.567.02-.436.094-.847.389-.945.691-1.234 1.524-.147.406.147.431.103.014.289-.028.183-.053.378-.142.423-.211 1.4-.835zm1.233-.08l.026.014q0-.077-.007-.174-.006-.098-.026-.169-.01-.074-.014-.084-.013-.007-.078.034-.068.03-.161.09l-.213.139-.194.816q-.517 2.176-.637 2.905-.02.083-.026.14-.006.056-.017.093-.002.033-.009.046l-.004.024q.003.01.013.007.01-.003.025-.03l.049-.058q.252-.348.503-.927.264-.572.468-1.204.3-.979.302-1.662zM14.967 35.159l.01-.003q.062-.051.125-.025.07.013.093.094.02.071-.056.148-.042.045-.097.083-.492.396-.772.609-.27.21-.418.308-.138.095-.244.147-.328.161-.543.025-.203-.129-.233-.461-.009-.108-.016-.249.002-.144.024-.26 0-.034-.005-.054l.004-.023-.032.042q-.021.04-.06.095l-.09.147.023.081q.057.424-.146.483-.041.012-.09-.007-.05-.019-.085-.064-.003-.01-.013-.007-.003-.01-.01.003-.008.013-.032.042-.025.03-.064.085-.039.055-.103.14-.252.348-.41.56-.16.21-.307.352-.503.509-.787.172-.105-.135-.126-.36-.024-.731.646-1.652.527-.692 1.012-.501.149.056.246.204.035.045.057.083.03.024.04.021.02-.006.09-.103.069-.108.151-.242.08-.144.155-.265.075-.12.094-.17.064-.162.165-.191.153-.044.212.159.001.044-.015.103-.008.047-.028.13-.04.166-.083.398-.043.233-.06.403-.016.137-.013.301 0 .154.004.241.046.197.36.028.165-.08.43-.267.263-.197.762-.605.13-.082.235-.178zm-2.898.914l.013.007.11-.153q.04-.055.054-.082.011-.036.008-.046.005-.023.002-.034-.01-.03-.025-.047-.006-.02-.055-.04-.261-.1-.62.334-.113.143-.258.405-.134.259-.212.447l-.092.29q-.036.143-.028.174.01.03.193-.133.272-.244.91-1.122z"/>
      <path d="M18.025 34.496l.028.058q.05-.015.083.02.029.024.023.081-.009.047-.054.082-.256.217-.627.61-.374.384-.73.795l-.196.233.005.131q-.006.707-.096 1.614-.156 1.521-.433 2.505-.389 1.4-1.077 2.03-.23.198-.446.249-.196.046-.337-.024-.443-.235-.353-1.22.022-.193.077-.496.046-.3.112-.528.5-1.895 1.947-3.823l.086-.124q.042-.045.039-.055.008-.047 0-.265.003-.22-.007-.482-.012-.272-.024-.467-.016-.205-.032-.222l-.033.075-.094.17q-.141.273-.289.525-.137.249-.204.323-.165.191-.298.152-.132-.038-.19-.165-.038-.055-.058-.16-.032-.111-.047-.24v-.076l-.01-.108q-.002-.01.01-.046-.002-.044.006-.09.006-.057.007-.09l-.001-.044q.01-.003.014-.027l.009-.046q.021-.116.082-.288.068-.185.137-.326.19-.374.403-.436.122-.035.243.04.128.062.166.194l.009.03q.013.008.023.005t.007-.013q.005-.023.002-.033.018-.127.09-.181.07-.064.158-.067.084-.014.157.01.07.012.088.04.049.052.063.103.025.048.034.155.006.098.011.306 0 .154.006.362.002.197.012.348.005.054.002.121-.001.11 0 .188.01.074.002.087.003.01-.007.013l.003.01q.01-.003.06-.061.059-.061.126-.136.757-.847 1.313-1.326zm-2.452.818l.164-.312-.043-.032q-.016-.017-.045-.042l-.044-.075-.048-.052-.019-.028q-.02.006-.077.077-.046.069-.094.17-.21.414-.235.862-.007.244.023.236.01-.003.047-.069.043-.079.09-.18.059-.105.135-.26.087-.157.146-.295zm.389 3.137l.016.018q.032-.307.06-.634.026-.327.035-.561.01-.235-.003-.242-.01.003-.089.114-.08.1-.18.25-.104.14-.189.264-.627.92-1.033 1.84-.073.165-.164.423-.098.27-.163.465-.157.486-.233.949-.072.473-.038.782.022.115.067.234.039.132.077.187.045.042.081.054.026.014.073.023.11.001.276-.113.51-.368.877-1.31.345-.982.53-2.743z"/>
      <path d="M20.733 33.614l-.016-.017q.037.011.049.052.018.027-.007.09l-.158.178q-.705.765-1.04 1.093-.324.325-.57.506-.838.606-1.32.349-.068-.047-.146-.124-.077-.076-.118-.142-.016-.017-.019-.027l-.016-.018-.012-.04-.029-.102-.03-.102-.014-.05.004-.024q.009-.046-.001-.12.019-.315.242-.687.286-.458.64-.34.247.094.199.384-.074.318-.37.591-.059.061-.107.086l-.101.03q-.038.021-.058.027-.02.006-.034-.001l-.046-.009q-.053-.029-.067-.002-.018.016-.009.123.005.054.014.085-.002.033.017.06.01.031.031.069.16.284.627.15.64-.186 1.603-1.202l.228-.242q.163-.157.272-.277l.05-.058q.24-.235.312-.289zm-3.07 1.229l-.034.075.079-.033q.085-.047.158-.101.07-.064.133-.149.06-.094.087-.157.045-.112-.082-.054-.085.047-.184.164-.098.116-.158.255z"/>
      <path d="M20.762 34.476q-.109.12-.135.182-.028.13.016.205l.008.03q.003.01.013.008l.031-.01q.081-.023.176-.116.09-.103.178-.26.105-.207.168-.446l-.07.064-.194.167q.003.01-.007.013l-.055.038-.084.09q-.02.006-.045.035zm.157-1.709q.066.003.189.045.24.107.322.391.059.204.055.458.01-.003.018-.016.16-.134.33-.305.164-.157.352-.344.064-.161.058-.336.037-.099.158-.1.023.004.039.021.052.03-.012.301-.055.27-.12.464-.048.213-.075.463-.03.24-.025.37l.017.062q.013.007.03.024.029.025.08.01.05-.015.123-.069.083-.056.219-.195-.065-.224-.035-.54.013-.335.12-.652.035-.11.104-.25.07-.142.143-.23.212-.259.395-.312.112-.032.224.013.177.08.214.323.045.23-.075.463-.084.167-.2.146-.108.009-.135-.083l-.011-.04q-.006-.02-.002-.044.004-.023.02-.083l.015-.026q.066-.228.022-.304l-.006-.02q-.003-.01-.013-.007l-.03.008q-.085.014-.176.117-.091.104-.191.254-.16.321-.21.721-.05.4.064.643.196.45.895-.028.176-.116.363-.27.184-.163.53-.494.027-.019.041-.045l.052-.048.031-.009q.013.007.016.017.01-.003.016.018.013.007.022.037l.012.041q.003.01-.005.023l-.007.014-.007.013-.01.003q-.297.306-.579.552-.284.237-.47.356-.381.243-.655.212-.315-.064-.441-.347-.13.126-.232.189-.238.167-.396.004-.048-.053-.074-.144-.03-.102-.025-.202.004-.1.034-.263.04-.166.073-.319.033-.076.052-.125.019-.05.009-.047-.02.006-.108.087l.007-.014q-.08.068-.18.174-.224.219-.397.346l-.01.003q-.02.314-.114.594-.035.11-.104.25-.07.142-.144.23-.221.262-.404.315-.102.029-.211-.006-.18-.09-.162-.294.015-.214.163-.389l.275-.267.018-.016.211-.182q.167-.147.257-.217l.013-.07q.05-.4-.064-.643-.07-.167-.226-.21-.067-.002-.18.03-.122.069-.163.157-.084.168-.104.25-.02.084-.081.101-.064.008-.116-.021-.072-.057-.078-.154-.009-.108.054-.159.037-.022.153-.154.126-.136.286-.193.102-.03.169-.027z"/>
      <path d="M27.755 31.685l.028.058q.05-.015.083.02.029.025.023.081-.008.047-.053.082-.257.217-.628.61-.374.384-.729.795l-.197.233.005.131q-.005.707-.096 1.614-.155 1.521-.433 2.505-.388 1.4-1.077 2.03-.23.198-.446.25-.196.045-.337-.024-.443-.236-.352-1.22.02-.194.077-.497.045-.3.112-.528.498-1.895 1.947-3.823l.085-.124q.042-.045.04-.055.008-.046 0-.264.002-.221-.007-.483-.013-.272-.025-.467-.015-.205-.031-.222l-.033.076-.094.17q-.142.272-.29.524-.137.25-.204.324-.165.19-.297.152-.133-.04-.191-.166-.038-.055-.057-.16-.033-.111-.048-.239.002-.033 0-.077l-.009-.108q-.003-.01.009-.046-.002-.044.007-.09l.007-.09-.002-.044q.01-.003.015-.026l.008-.047q.022-.116.082-.288.068-.185.137-.326.19-.374.403-.436.122-.035.243.04.128.062.167.195l.008.03q.013.007.024.004.01-.003.007-.013.004-.023.001-.033.019-.127.091-.18.07-.065.157-.068.084-.013.157.01.07.013.089.04.048.052.063.103.025.048.034.156.006.097.01.305.001.154.006.362.002.198.013.349.004.053.001.12v.188q.01.074.003.087.003.01-.007.013l.002.01q.01-.003.06-.06.06-.062.126-.136.758-.847 1.313-1.327zm-2.451.818l.163-.311-.042-.032q-.016-.018-.045-.042l-.044-.076-.048-.052-.02-.028q-.02.006-.076.078-.047.068-.094.17-.211.414-.236.861-.007.245.024.236.01-.003.046-.069.044-.078.091-.18.058-.105.135-.26.086-.157.146-.295zm.388 3.138l.016.017q.033-.307.06-.634.026-.327.036-.561.01-.234-.004-.242-.01.003-.088.114-.081.1-.181.25-.103.14-.189.264-.626.92-1.032 1.84-.074.165-.165.423-.098.27-.163.466-.157.486-.232.948-.073.473-.039.782.022.115.068.234.038.132.076.188.045.042.082.053.026.015.072.023.11.001.276-.113.51-.367.877-1.31.345-.981.53-2.742z"/>
      <path d="M31.53 30.374l.01-.003q.062-.05.125-.025.07.013.093.094.02.072-.056.149-.042.045-.097.083-.492.395-.772.608-.27.21-.418.308-.138.095-.244.148-.328.16-.543.025-.203-.129-.233-.462-.009-.107-.016-.248.002-.144.024-.26 0-.034-.005-.054l.004-.024-.032.043q-.021.039-.06.094l-.09.147.023.082q.057.424-.146.483-.041.011-.09-.007-.05-.019-.085-.064-.003-.01-.013-.007-.003-.01-.01.003-.008.013-.032.042-.025.03-.064.084-.039.056-.103.14-.252.348-.41.56-.16.211-.307.352-.503.51-.787.173-.105-.135-.126-.36-.024-.732.646-1.652.527-.692 1.012-.502.149.056.246.204.035.045.057.083.03.025.04.022.02-.006.09-.104.069-.107.151-.241.08-.145.155-.265.075-.121.094-.17.064-.162.165-.192.153-.044.212.16.001.043-.015.103-.008.046-.028.13-.04.165-.083.398-.043.233-.06.403-.016.136-.013.3 0 .155.004.242.046.196.36.028.165-.08.43-.267.263-.197.762-.606.13-.082.235-.178zm-2.898.914l.013.008.11-.153q.04-.056.054-.082.011-.036.008-.047.005-.023.002-.033-.01-.03-.025-.048-.006-.02-.056-.039-.26-.101-.62.333-.112.143-.257.405-.134.26-.212.447l-.092.291q-.036.143-.028.173.01.03.193-.133.272-.243.91-1.122z"/>
    </g>
    <g>
      <path d="M35.202 38.281q.037-.3.066-.699-.138.055-.27.097-.103.477-.17.999.153-.182.19-.205l.099-.11zm.305-.297q.078-.07.088-.072.01-.004.044-.037.04-.046.098-.109l.034-.033.01-.003.167-.175-.057-.004q-.137-.012-.31-.035-.024-.003-.034 0-.024.24-.04.468zm-.338.718l-.01.004q-.024.03-.04.046l-.33.293-.007.047q-.122 1.083-.057 1.74l.03.234q.022.105.035.178.022.07.03.058.023-.03.067-.344.055-.317.108-.745.06-.441.112-.869zm.19-2.193l-.018-.094-.028.053q-.038.124-.091.307l-.105.367.006-.013q-.031.11-.05.227l.23-.118q.044-.525.056-.729zm.318-.923q.06-.052.118-.115.278-.244.819-.605.381-.266.557-.41.183-.159.235-.275.11-.213-.135-.424-.43-.374-1.433-.665-.014.237-.037.478-.021.351-.032.632zm-.093-2.558q-.416-.156-.994-.228-1.518-.16-2.961.154-1.037.23-1.76.716-.132.109-.332.283-.19.172-.282.301-.716.961-.205 1.798.069.111.187.24.116.119.245.245.35.299.855.627.51.315.954.451.444.137.734.211l.43.096q.15.02.988-.036.566-.036 1.425-.443.195-.784.48-1.597l.084-.226.046-.659.106-1.933zM35.771 37q.058-.03.101-.032.054-.006.074-.012.03-.01.044-.037l.04-.012q.017-.017.047-.026l.111-.036.03-.01q.064-.009.108-.011.05-.016.064-.01.167.003.276.135.105.122.076.309-.015.06-.062.12-.038.056-.082.092-.07.056-.237.198-.156.138-.328.293-.041.046-.078.07-.39.312-.403.338l-.068.067-.08 1.146q-.023.519-.047.827-.028.297-.05.47l-.027.265q-.015.093-.033.177-.036.2-.094.296-.058.097-.146.136l-.01.003q-.02.006-.017.016l-.034.033q-.03.043-.118.049-.09.029-.14-.022-.04-.054-.08-.252-.175-.689-.076-2.053.009-.147.03-.287l-.097.075q-4.136 3.372-7.339 4.79-.077.036-.188.072-.108.045-.188.07-.165.042-.255.038-.097.008-.177-.033-.113-.075-.132-.17-.022-.103.063-.186l.027.014q.04-.046.094-.052.05-.016.147.008.107.022.224.007.114-.025.397-.115l.282-.09q.138-.055.206-.088 2.377-1.079 5.421-3.414.311-.243.684-.54.382-.299.663-.533.105-.088.2-.174.071-.578.206-1.166-.649.23-.974.288-.54.117-1.026.127-.489 0-1.352-.236-.867-.246-1.9-1.05-.146-.109-.325-.285-.181-.187-.267-.315-.699-1.01.133-2.164.106-.156.276-.32.176-.18.322-.281l.043-.003q1.16-.824 3.12-.982 1.52-.106 2.736.362.026-.652.043-1.224 0-.422.006-.68.004-.267-.001-.388.002-.134-.004-.187.004-.057-.006-.087-.015-.084-.008-.131.014-.06.052-.117.055-.106.156-.138.107-.045.204.013.08.041.108.165.025.114-.033.21-.007.014-.036.134-.028.12-.057.274-.029.153-.04.29-.057.451-.114 1.736-.011.07-.01.147l-.007.047q1.191.32 1.66.749.387.41-.044.836-.092.096-.254.214-.156.105-.51.318-.344.21-.523.344-.183.125-.312.243-.108.113-.194.229-.035.411-.096 1.197l.199-.108z"/>
      <path d="M38.662 38.335l-.004-.01q-.013-.007-.016-.017-.017-.017-.046-.041l-.06-.048q-.03-.024-.04-.02l-.037.056-.1.143q-.064.076-.125.162-.37.55-.475.95-.13.464.134.458.034 0 .1-.032l.146-.069q.202-.13.37-.373.075-.113.134-.242.068-.133.107-.257.014-.06.019-.15.011-.104.005-.157-.005-.087-.034-.178-.032-.101-.078-.175zm-.24-.335l-.007-.02q-.012-.04-.042-.064-.053-.061-.085-.162-.035-.11-.04-.232.005-.123.034-.31.04-.19.082-.37l.045-.137q.025-.064.015-.06-.03.01-.387.39-.428.469-.665.633-.24.154-.383.088-.17-.079-.202-.357l.001-.134q.002-.1.013-.204.019-.117.02-.217-.002-.11.002-.168.004-.3.166-.352.171-.055.242.167.01.03.012.074 0 .033-.035.1l-.073.19q-.038.09-.07.233-.022.14-.034.277-.015.127.001.178.042.13.302-.03.098-.075.275-.254.183-.191.373-.396.197-.218.34-.364.152-.148.196-.184.027-.02.05-.017.021-.006.037.011.067.034.062.125.006.087-.064.32-.054.25-.084.538-.021.284-.006.435l.019.06.033.034q.043.031.093.015.06-.02.149-.092.314-.233 1.219-1.51l.016.018.048-.06q.143-.212.201-.309l.036.111q-.058.097-.184.259-.544.806-.83 1.163-.286.358-.478.486-.088.072-.162.118.062.058.105.122t.075.165q.048.118.057.249.015.117-.01.28-.02.151-.068.278-.039.123-.114.27-.13.252-.345.453-.115.126-.253.214-.139.089-.236.097-.07.023-.144.002-.073-.021-.113-.075-.036-.044-.055-.105-.02-.06-.015-.117-.01-.064.005-.158.015-.093.046-.203.114-.447.687-1.296.055-.073.076-.113.03-.043.044-.07z"/>
      <path d="M42.963 35.833l.003.01q.085-.083.21-.178.125-.095.217-.158l.045.141q-.03.01-.214.168-.172.155-.376.353-.16.162-.343.354-.173.188-.302.34-.133.142-.147.169-.006.013-.017.05-.004.023-.008.08-.104 1.244-.418 2.488-.312 1.254-.752 2.105-.47.894-.858.829-.374-.059-.345-.946.052-1.127.856-2.682.42-.778 1.08-1.632l.12-.15.02-.25q.019-.462.007-.847-.004-.398-.039-.576l-.035-.111-.246.345q-.652.951-.914 1.035-.06.02-.13.008-.06-.014-.107-.055-.105-.122-.138-.4-.003-.043-.003-.077l-.01-.03.004-.024q0-.033.008-.08.007-.047.005-.09l.01-.07.001-.034-.001-.144q.001-.134.032-.177.028-.053.108-.078.03-.01.06.014.04.02.077.064.059.081.006.231-.049.16-.078.347-.02.184-.004.302.003.043.012.073.017.017.04.021.123.072.433-.282.04-.046.088-.106l.14-.189q.082-.126.242-.355l.123-.172q.061-.086.102-.132.058-.063.079-.103.02-.04.03-.077.015-.093.08-.136.06-.053.144-.035.166.07.16.26-.01.037-.004.124.002.077.01.174.048.463.038.921-.005.124-.013.204l.003.077.05-.05q.051-.049.116-.125.166-.175.38-.376.21-.212.363-.36zm-1.4 2.545l.01-.004q.022-.173.045-.38.033-.211.052-.361.026-.164.016-.16-.01.002-.106.122l-.208.288-.208.288q-.724 1.041-1.054 1.99-.22.637-.287 1.158-.022.14-.021.318.004.188.016.295.015.117.06.225.039.12.082.152.083.05.225-.094.18-.169.417-.644.121-.25.225-.482.093-.23.2-.52.353-1.023.536-2.191z"/>
      <path d="M44.353 33.535q.02-.284-.027-.435-.037-.255-.19-.317-.246-.144-.827.263-.396.292-.631.634-.236.342-.246.623-.005.123.063.235.066.101.258.25l.152.13q.076.065.113.109l.079.074.05-.193q.039-.19.109-.424.067-.243.13-.43.07-.2.097-.253.058-.096.145-.101.097-.01.176.066.146.142.002.354-.092.163-.225.55-.122.383-.2.73l-.032.143.07.222.041.198q.016.084.022.138.016.261-.122.56-.059.13-.121.072-.02-.027-.04-.02-.01.003-.024-.004l-.04-.02q-.12-.062-.15-.264-.015-.15.006-.435.01-.28.051-.571l.005-.09q.01-.037.004-.057-.006-.02-.023-.038-.04-.054-.132-.135-.103-.079-.202-.147-.196-.126-.285-.231-.102-.112-.137-.257l-.006-.02-.01-.097q-.005-.054-.005-.087.036-.378.346-.799.085-.116.248-.267.17-.165.295-.26.149-.126.263-.185.125-.062.286-.113.091-.029.135-.032.05-.016.073-.012.03-.01.064-.01.291.008.429.23.023.038.042.099.026.047.048.15.051.162.062.37-.037.234-.189.104zm-1.039 2.32l.014.006q-.016-.117-.05.16-.022.207-.02.318-.002.1.024.147.007.02.02.027l.006.02.004.01.006-.013.021-.04q.004-.023.014-.06.018-.083.023-.173.004-.09-.03-.235-.007-.054-.023-.104-.006-.054-.009-.064zM49.028 33.08l.01-.003q.062-.053.125-.029.07.011.096.092.022.07-.053.15-.04.046-.095.086-.48.408-.754.629-.264.217-.41.319-.135.098-.24.154-.323.17-.542.04-.206-.124-.245-.456-.012-.107-.024-.248 0-.144.017-.26 0-.034-.006-.054l.004-.024-.03.044q-.021.04-.059.096l-.086.15.026.08q.068.423-.134.487-.04.013-.09-.005-.05-.017-.086-.061-.003-.01-.013-.007-.004-.01-.01.003-.007.013-.031.043t-.062.086q-.037.057-.099.143-.242.355-.396.57-.153.216-.296.361-.489.522-.782.194-.109-.132-.136-.357-.044-.73.602-1.669.508-.706.998-.528.15.052.251.197.037.044.06.081.03.024.04.02.02-.005.088-.105l.144-.246q.075-.146.147-.269.072-.123.09-.173.059-.163.16-.195.15-.048.215.154.003.043-.011.103-.008.047-.026.13-.035.167-.072.401-.037.234-.049.404-.012.137-.004.302.005.154.01.24.051.196.361.019.162-.085.423-.279.257-.204.744-.626.129-.085.23-.184zm-2.871.992l.013.007.106-.156q.037-.056.051-.083.01-.037.007-.047.004-.023 0-.033-.009-.03-.025-.047-.007-.02-.057-.038-.263-.094-.61.35-.11.146-.247.412-.127.262-.2.452l-.084.293q-.032.144-.023.174.01.03.19-.138.264-.25.879-1.146z"/>
    </g>
  </g>
</svg>
